<svg width="91" height="50" viewBox="0 0 91 50" fill="none" xmlns="http://www.w3.org/2000/svg">
<path d="M19.46 30.01V25.67C19.46 25.3433 19.4367 25.0867 19.39 24.9C19.3433 24.7133 19.1917 24.5383 18.935 24.375C18.6783 24.2117 18.2933 24.13 17.78 24.13H16.52V23.15H24.71V24.13H24.15C23.45 24.13 22.995 24.27 22.785 24.55C22.575 24.8067 22.47 25.18 22.47 25.67V29.24C19.11 32.88 15.4467 34.7 11.48 34.7C8.82 34.7 6.45167 33.5217 4.375 31.165C2.29833 28.8083 1.26 26.16 1.26 23.22C1.26 19.4167 2.66 16.08 5.46 13.21C8.28333 10.3167 11.5733 8.87 15.33 8.87C16.73 8.87 18.62 9.26667 21 10.06L21.21 14.89H19.95C19.95 12.79 17.8967 11.74 13.79 11.74C10.9667 11.74 8.56333 12.5217 6.58 14.085C4.62 15.625 3.64 17.83 3.64 20.7C3.64 22.31 3.885 23.78 4.375 25.11C4.88833 26.44 5.53 27.525 6.3 28.365C7.07 29.205 7.93333 29.9167 8.89 30.5C10.6633 31.5267 12.3783 32.04 14.035 32.04C15.6917 32.04 17.5 31.3633 19.46 30.01ZM37.8098 34.7C34.7532 34.7 32.1982 33.5217 30.1448 31.165C28.1148 28.8083 27.0998 26.09 27.0998 23.01C27.0998 21.0967 27.5198 19.2533 28.3598 17.48C29.1998 15.7067 30.2732 14.2017 31.5798 12.965C32.9098 11.7283 34.3682 10.7367 35.9548 9.99C37.5648 9.24333 39.1165 8.87 40.6098 8.87C43.6432 8.87 46.1865 10.0483 48.2398 12.405C50.2932 14.7617 51.3198 17.48 51.3198 20.56C51.3198 22.8467 50.7015 25.0867 49.4648 27.28C48.2282 29.45 46.5482 31.235 44.4248 32.635C42.3248 34.0117 40.1198 34.7 37.8098 34.7ZM39.9798 32.04C42.5232 32.04 44.6582 31.1067 46.3848 29.24C48.1348 27.3733 49.0098 25.0633 49.0098 22.31C49.0098 19.5567 47.9948 17.0833 45.9648 14.89C43.9582 12.6967 41.5198 11.6 38.6498 11.6C36.1998 11.6 34.0415 12.4867 32.1748 14.26C30.3315 16.01 29.4098 18.11 29.4098 20.56C29.4098 23.7333 30.3782 26.44 32.3148 28.68C34.2748 30.92 36.8298 32.04 39.9798 32.04ZM72.0284 30.01V25.67C72.0284 25.3433 72.005 25.0867 71.9584 24.9C71.9117 24.7133 71.76 24.5383 71.5034 24.375C71.2467 24.2117 70.8617 24.13 70.3484 24.13H69.0884V23.15H77.2784V24.13H76.7184C76.0184 24.13 75.5634 24.27 75.3534 24.55C75.1434 24.8067 75.0384 25.18 75.0384 25.67V29.24C71.6784 32.88 68.015 34.7 64.0484 34.7C61.3884 34.7 59.02 33.5217 56.9434 31.165C54.8667 28.8083 53.8284 26.16 53.8284 23.22C53.8284 19.4167 55.2284 16.08 58.0284 13.21C60.8517 10.3167 64.1417 8.87 67.8984 8.87C69.2984 8.87 71.1884 9.26667 73.5684 10.06L73.7784 14.89H72.5184C72.5184 12.79 70.465 11.74 66.3584 11.74C63.535 11.74 61.1317 12.5217 59.1484 14.085C57.1884 15.625 56.2084 17.83 56.2084 20.7C56.2084 22.31 56.4534 23.78 56.9434 25.11C57.4567 26.44 58.0984 27.525 58.8684 28.365C59.6384 29.205 60.5017 29.9167 61.4584 30.5C63.2317 31.5267 64.9467 32.04 66.6034 32.04C68.26 32.04 70.0684 31.3633 72.0284 30.01ZM88.6982 34H79.8082V33.02H80.9982C81.6982 33.02 82.1532 32.88 82.3632 32.6C82.5732 32.32 82.6782 31.9233 82.6782 31.41V12.09C82.6782 11.5767 82.5732 11.18 82.3632 10.9C82.1532 10.62 81.6982 10.48 80.9982 10.48H79.8082V9.5H88.6982V10.48H87.3682C86.6682 10.48 86.2132 10.62 86.0032 10.9C85.7932 11.18 85.6882 11.5767 85.6882 12.09V31.41C85.6882 31.9233 85.7932 32.32 86.0032 32.6C86.2132 32.88 86.6682 33.02 87.3682 33.02H88.6982V34Z" fill="black"/>
<path d="M54.3633 46.2266C54.6211 46.2266 54.8594 46.1738 55.0781 46.0684C55.2969 45.9629 55.4766 45.8184 55.6172 45.6348C55.7578 45.4473 55.8379 45.2344 55.8574 44.9961H56.8887C56.8691 45.3711 56.7422 45.7207 56.5078 46.0449C56.2773 46.3652 55.9746 46.625 55.5996 46.8242C55.2246 47.0195 54.8125 47.1172 54.3633 47.1172C53.8867 47.1172 53.4707 47.0332 53.1152 46.8652C52.7637 46.6973 52.4707 46.4668 52.2363 46.1738C52.0059 45.8809 51.832 45.5449 51.7148 45.166C51.6016 44.7832 51.5449 44.3789 51.5449 43.9531V43.707C51.5449 43.2812 51.6016 42.8789 51.7148 42.5C51.832 42.1172 52.0059 41.7793 52.2363 41.4863C52.4707 41.1934 52.7637 40.9629 53.1152 40.7949C53.4707 40.627 53.8867 40.543 54.3633 40.543C54.8594 40.543 55.293 40.6445 55.6641 40.8477C56.0352 41.0469 56.3262 41.3203 56.5371 41.668C56.752 42.0117 56.8691 42.4023 56.8887 42.8398H55.8574C55.8379 42.5781 55.7637 42.3418 55.6348 42.1309C55.5098 41.9199 55.3379 41.752 55.1191 41.627C54.9043 41.498 54.6523 41.4336 54.3633 41.4336C54.0312 41.4336 53.752 41.5 53.5254 41.6328C53.3027 41.7617 53.125 41.9375 52.9922 42.1602C52.8633 42.3789 52.7695 42.623 52.7109 42.8926C52.6562 43.1582 52.6289 43.4297 52.6289 43.707V43.9531C52.6289 44.2305 52.6562 44.5039 52.7109 44.7734C52.7656 45.043 52.8574 45.2871 52.9863 45.5059C53.1191 45.7246 53.2969 45.9004 53.5195 46.0332C53.7461 46.1621 54.0273 46.2266 54.3633 46.2266ZM59.2852 40.6602V47H58.1953V40.6602H59.2852ZM58.1133 38.9785C58.1133 38.8027 58.166 38.6543 58.2715 38.5332C58.3809 38.4121 58.541 38.3516 58.752 38.3516C58.959 38.3516 59.1172 38.4121 59.2266 38.5332C59.3398 38.6543 59.3965 38.8027 59.3965 38.9785C59.3965 39.1465 59.3398 39.291 59.2266 39.4121C59.1172 39.5293 58.959 39.5879 58.752 39.5879C58.541 39.5879 58.3809 39.5293 58.2715 39.4121C58.166 39.291 58.1133 39.1465 58.1133 38.9785ZM62.1094 42.0137V47H61.0254V40.6602H62.0508L62.1094 42.0137ZM61.8516 43.5898L61.4004 43.5723C61.4043 43.1387 61.4688 42.7383 61.5938 42.3711C61.7188 42 61.8945 41.6777 62.1211 41.4043C62.3477 41.1309 62.6172 40.9199 62.9297 40.7715C63.2461 40.6191 63.5957 40.543 63.9785 40.543C64.291 40.543 64.5723 40.5859 64.8223 40.6719C65.0723 40.7539 65.2852 40.8867 65.4609 41.0703C65.6406 41.2539 65.7773 41.4922 65.8711 41.7852C65.9648 42.0742 66.0117 42.4277 66.0117 42.8457V47H64.9219V42.834C64.9219 42.502 64.873 42.2363 64.7754 42.0371C64.6777 41.834 64.5352 41.6875 64.3477 41.5977C64.1602 41.5039 63.9297 41.457 63.6562 41.457C63.3867 41.457 63.1406 41.5137 62.918 41.627C62.6992 41.7402 62.5098 41.8965 62.3496 42.0957C62.1934 42.2949 62.0703 42.5234 61.9805 42.7812C61.8945 43.0352 61.8516 43.3047 61.8516 43.5898ZM70.2891 47.1172C69.8477 47.1172 69.4473 47.043 69.0879 46.8945C68.7324 46.7422 68.4258 46.5293 68.168 46.2559C67.9141 45.9824 67.7188 45.6582 67.582 45.2832C67.4453 44.9082 67.377 44.498 67.377 44.0527V43.8066C67.377 43.291 67.4531 42.832 67.6055 42.4297C67.7578 42.0234 67.9648 41.6797 68.2266 41.3984C68.4883 41.1172 68.7852 40.9043 69.1172 40.7598C69.4492 40.6152 69.793 40.543 70.1484 40.543C70.6016 40.543 70.9922 40.6211 71.3203 40.7773C71.6523 40.9336 71.9238 41.1523 72.1348 41.4336C72.3457 41.7109 72.502 42.0391 72.6035 42.418C72.7051 42.793 72.7559 43.2031 72.7559 43.6484V44.1348H68.0215V43.25H71.6719V43.168C71.6562 42.8867 71.5977 42.6133 71.4961 42.3477C71.3984 42.082 71.2422 41.8633 71.0273 41.6914C70.8125 41.5195 70.5195 41.4336 70.1484 41.4336C69.9023 41.4336 69.6758 41.4863 69.4688 41.5918C69.2617 41.6934 69.084 41.8457 68.9355 42.0488C68.7871 42.252 68.6719 42.5 68.5898 42.793C68.5078 43.0859 68.4668 43.4238 68.4668 43.8066V44.0527C68.4668 44.3535 68.5078 44.6367 68.5898 44.9023C68.6758 45.1641 68.7988 45.3945 68.959 45.5938C69.123 45.793 69.3203 45.9492 69.5508 46.0625C69.7852 46.1758 70.0508 46.2324 70.3477 46.2324C70.7305 46.2324 71.0547 46.1543 71.3203 45.998C71.5859 45.8418 71.8184 45.6328 72.0176 45.3711L72.6738 45.8926C72.5371 46.0996 72.3633 46.2969 72.1523 46.4844C71.9414 46.6719 71.6816 46.8242 71.373 46.9414C71.0684 47.0586 70.707 47.1172 70.2891 47.1172ZM75.0996 41.9199V47H74.0098V40.6602H75.041L75.0996 41.9199ZM74.877 43.5898L74.373 43.5723C74.377 43.1387 74.4336 42.7383 74.543 42.3711C74.6523 42 74.8145 41.6777 75.0293 41.4043C75.2441 41.1309 75.5117 40.9199 75.832 40.7715C76.1523 40.6191 76.5234 40.543 76.9453 40.543C77.2422 40.543 77.5156 40.5859 77.7656 40.6719C78.0156 40.7539 78.2324 40.8848 78.416 41.0645C78.5996 41.2441 78.7422 41.4746 78.8438 41.7559C78.9453 42.0371 78.9961 42.377 78.9961 42.7754V47H77.9121V42.8281C77.9121 42.4961 77.8555 42.2305 77.7422 42.0312C77.6328 41.832 77.4766 41.6875 77.2734 41.5977C77.0703 41.5039 76.832 41.457 76.5586 41.457C76.2383 41.457 75.9707 41.5137 75.7559 41.627C75.541 41.7402 75.3691 41.8965 75.2402 42.0957C75.1113 42.2949 75.0176 42.5234 74.959 42.7812C74.9043 43.0352 74.877 43.3047 74.877 43.5898ZM78.9844 42.9922L78.2578 43.2148C78.2617 42.8672 78.3184 42.5332 78.4277 42.2129C78.541 41.8926 78.7031 41.6074 78.9141 41.3574C79.1289 41.1074 79.3926 40.9102 79.7051 40.7656C80.0176 40.6172 80.375 40.543 80.7773 40.543C81.1172 40.543 81.418 40.5879 81.6797 40.6777C81.9453 40.7676 82.168 40.9062 82.3477 41.0938C82.5312 41.2773 82.6699 41.5137 82.7637 41.8027C82.8574 42.0918 82.9043 42.4355 82.9043 42.834V47H81.8145V42.8223C81.8145 42.4668 81.7578 42.1914 81.6445 41.9961C81.5352 41.7969 81.3789 41.6582 81.1758 41.5801C80.9766 41.498 80.7383 41.457 80.4609 41.457C80.2227 41.457 80.0117 41.498 79.8281 41.5801C79.6445 41.6621 79.4902 41.7754 79.3652 41.9199C79.2402 42.0605 79.1445 42.2227 79.0781 42.4062C79.0156 42.5898 78.9844 42.7852 78.9844 42.9922ZM88.2832 45.916V42.6523C88.2832 42.4023 88.2324 42.1855 88.1309 42.002C88.0332 41.8145 87.8848 41.6699 87.6855 41.5684C87.4863 41.4668 87.2402 41.416 86.9473 41.416C86.6738 41.416 86.4336 41.4629 86.2266 41.5566C86.0234 41.6504 85.8633 41.7734 85.7461 41.9258C85.6328 42.0781 85.5762 42.2422 85.5762 42.418H84.4922C84.4922 42.1914 84.5508 41.9668 84.668 41.7441C84.7852 41.5215 84.9531 41.3203 85.1719 41.1406C85.3945 40.957 85.6602 40.8125 85.9688 40.707C86.2812 40.5977 86.6289 40.543 87.0117 40.543C87.4727 40.543 87.8789 40.6211 88.2305 40.7773C88.5859 40.9336 88.8633 41.1699 89.0625 41.4863C89.2656 41.7988 89.3672 42.1914 89.3672 42.6641V45.6172C89.3672 45.8281 89.3848 46.0527 89.4199 46.291C89.459 46.5293 89.5156 46.7344 89.5898 46.9062V47H88.459C88.4043 46.875 88.3613 46.709 88.3301 46.502C88.2988 46.291 88.2832 46.0957 88.2832 45.916ZM88.4707 43.1562L88.4824 43.918H87.3867C87.0781 43.918 86.8027 43.9434 86.5605 43.9941C86.3184 44.041 86.1152 44.1133 85.9512 44.2109C85.7871 44.3086 85.6621 44.4316 85.5762 44.5801C85.4902 44.7246 85.4473 44.8945 85.4473 45.0898C85.4473 45.2891 85.4922 45.4707 85.582 45.6348C85.6719 45.7988 85.8066 45.9297 85.9863 46.0273C86.1699 46.1211 86.3945 46.168 86.6602 46.168C86.9922 46.168 87.2852 46.0977 87.5391 45.957C87.793 45.8164 87.9941 45.6445 88.1426 45.4414C88.2949 45.2383 88.377 45.041 88.3887 44.8496L88.8516 45.3711C88.8242 45.5352 88.75 45.7168 88.6289 45.916C88.5078 46.1152 88.3457 46.3066 88.1426 46.4902C87.9434 46.6699 87.7051 46.8203 87.4277 46.9414C87.1543 47.0586 86.8457 47.1172 86.502 47.1172C86.0723 47.1172 85.6953 47.0332 85.3711 46.8652C85.0508 46.6973 84.8008 46.4727 84.6211 46.1914C84.4453 45.9062 84.3574 45.5879 84.3574 45.2363C84.3574 44.8965 84.4238 44.5977 84.5566 44.3398C84.6895 44.0781 84.8809 43.8613 85.1309 43.6895C85.3809 43.5137 85.6816 43.3809 86.0332 43.291C86.3848 43.2012 86.7773 43.1562 87.2109 43.1562H88.4707Z" fill="black"/>
</svg>
