<svg width="36" height="36" viewBox="0 0 36 36" fill="none" xmlns="http://www.w3.org/2000/svg">
<path fill-rule="evenodd" clip-rule="evenodd" d="M18 31.5C25.4557 31.5 31.5 25.4557 31.5 18C31.5 10.5442 25.4557 4.5 18 4.5C10.5442 4.5 4.5 10.5442 4.5 18C4.5 25.4557 10.5442 31.5 18 31.5ZM18 33C26.2845 33 33 26.2845 33 18C33 9.7155 26.2845 3 18 3C9.7155 3 3 9.7155 3 18C3 26.2845 9.7155 33 18 33Z" fill="#333333"/>
<path d="M9 26.7225C9 25.9478 9.579 25.293 10.35 25.2075C16.1362 24.567 19.89 24.6248 25.6635 25.2218C25.9518 25.252 26.2251 25.3656 26.4499 25.5486C26.6747 25.7317 26.8413 25.9762 26.9295 26.2524C27.0176 26.5285 27.0234 26.8244 26.9462 27.1038C26.8689 27.3832 26.712 27.6341 26.4945 27.8258C19.6807 33.765 15.7868 33.6833 9.48 27.8318C9.1725 27.5468 9 27.1418 9 26.7233V26.7225Z" fill="#333333"/>
<path fill-rule="evenodd" clip-rule="evenodd" d="M25.5863 25.9672C19.8585 25.3747 16.1588 25.3192 10.4318 25.953C10.2432 25.975 10.0694 26.0657 9.94365 26.2078C9.81786 26.3499 9.74891 26.5334 9.75 26.7232C9.75 26.9377 9.83925 27.141 9.99 27.282C13.116 30.1815 15.4845 31.4917 17.7998 31.5C20.1233 31.5082 22.6193 30.2085 26.0018 27.261C26.1092 27.1653 26.1866 27.0405 26.2244 26.9018C26.2623 26.763 26.259 26.6162 26.215 26.4792C26.171 26.3422 26.0881 26.221 25.9765 26.1303C25.8649 26.0395 25.7293 25.9831 25.5863 25.968V25.9672ZM10.2675 24.462C16.1145 23.8147 19.923 23.8732 25.7415 24.4755C26.1752 24.5208 26.5863 24.6915 26.9245 24.9668C27.2627 25.2422 27.5133 25.6101 27.6455 26.0256C27.7778 26.4412 27.7861 26.8863 27.6693 27.3064C27.5525 27.7266 27.3157 28.1036 26.988 28.3912C23.5568 31.3822 20.6993 33.0112 17.7953 33C14.883 32.9895 12.1515 31.3327 8.97075 28.3815C8.74302 28.1694 8.56147 27.9126 8.43746 27.6271C8.31345 27.3417 8.24963 27.0337 8.25 26.7225C8.24891 26.1633 8.45416 25.6234 8.82643 25.2061C9.1987 24.7889 9.71182 24.5237 10.2675 24.4612V24.462Z" fill="#333333"/>
<path d="M24 15C24 16.5913 23.3679 18.1174 22.2426 19.2426C21.1174 20.3679 19.5913 21 18 21C16.4087 21 14.8826 20.3679 13.7574 19.2426C12.6321 18.1174 12 16.5913 12 15C12 13.4087 12.6321 11.8826 13.7574 10.7574C14.8826 9.63214 16.4087 9 18 9C19.5913 9 21.1174 9.63214 22.2426 10.7574C23.3679 11.8826 24 13.4087 24 15V15Z" fill="#333333"/>
<path fill-rule="evenodd" clip-rule="evenodd" d="M18 19.5C19.1935 19.5 20.3381 19.0259 21.182 18.182C22.0259 17.3381 22.5 16.1935 22.5 15C22.5 13.8065 22.0259 12.6619 21.182 11.818C20.3381 10.9741 19.1935 10.5 18 10.5C16.8065 10.5 15.6619 10.9741 14.818 11.818C13.9741 12.6619 13.5 13.8065 13.5 15C13.5 16.1935 13.9741 17.3381 14.818 18.182C15.6619 19.0259 16.8065 19.5 18 19.5V19.5ZM18 21C19.5913 21 21.1174 20.3679 22.2426 19.2426C23.3679 18.1174 24 16.5913 24 15C24 13.4087 23.3679 11.8826 22.2426 10.7574C21.1174 9.63214 19.5913 9 18 9C16.4087 9 14.8826 9.63214 13.7574 10.7574C12.6321 11.8826 12 13.4087 12 15C12 16.5913 12.6321 18.1174 13.7574 19.2426C14.8826 20.3679 16.4087 21 18 21V21Z" fill="#333333"/>
</svg>
