<svg width="546" height="281" viewBox="0 0 546 281" fill="none" xmlns="http://www.w3.org/2000/svg">
<g clip-path="url(#clip0_1094_1396)">
<path opacity="0.24" d="M149.046 45.6807C123.099 59.1294 94.3714 66.369 67.6805 78.2914C40.9897 90.2139 15.1999 108.541 4.15269 135.686C1.09709 143.135 -0.731052 151.339 0.274424 159.388C2.5596 177.65 18.4122 190.981 34.3953 200.047C69.2867 219.861 109.623 228.262 145.22 246.798C160.563 254.794 174.979 264.642 190.923 271.334C229.81 287.652 276.807 283.074 311.763 259.451C325.84 249.954 338.036 237.653 353.118 229.879C376.623 217.761 404.398 217.983 430.867 218.765C457.335 219.548 484.94 220.396 508.98 209.295C533.02 198.195 551.903 171.023 544.237 145.691C539.458 129.855 525.629 118.298 510.926 110.667C496.223 103.036 480.109 98.4448 465.379 90.8792C422.979 69.0691 394.735 24.2751 350.154 7.39575C314.362 -6.24858 275.057 0.964914 239.93 13.1744C225.07 18.3921 210.406 17.4529 195.533 22.1749C178.975 27.4187 164.363 37.6585 149.046 45.6807Z" fill="#8CC5F9"/>
<path d="M258.773 181.707C184.525 181.707 126.377 164.554 126.377 142.652C126.377 120.751 184.525 103.611 258.773 103.611C333.022 103.611 391.157 120.764 391.157 142.652C391.157 164.541 333.009 181.707 258.773 181.707ZM258.773 107.146C188.925 107.146 129.915 123.412 129.915 142.652C129.915 161.893 188.925 178.172 258.773 178.172C328.621 178.172 387.618 161.906 387.618 142.652C387.618 123.399 328.595 107.146 258.773 107.146Z" fill="#8CC5F9"/>
<path d="M262.821 218.74C202.218 218.74 145.207 211.435 102.297 198.169C58.7355 184.694 34.7869 166.51 34.7869 146.944C34.7869 127.378 58.7747 109.194 102.337 95.719C145.246 82.466 202.258 75.1482 262.86 75.1482C323.463 75.1482 380.488 82.466 423.384 95.719C466.959 109.194 490.947 127.391 490.947 146.944C490.947 166.497 466.959 184.694 423.384 198.169C380.449 211.435 323.437 218.74 262.821 218.74ZM262.821 78.8267C202.571 78.8267 145.951 86.0793 103.394 99.241C62.1045 111.998 38.417 129.386 38.417 146.944C38.417 164.502 62.1045 181.89 103.394 194.66C145.951 207.822 202.636 215.061 262.821 215.061C323.006 215.061 379.705 207.822 422.261 194.66C463.551 181.89 487.225 164.502 487.225 146.944C487.225 129.386 463.551 111.998 422.261 99.241C379.705 86.1184 323.084 78.8267 262.821 78.8267Z" fill="#8CC5F9"/>
<path d="M260.588 74.1436C253.934 74.0623 247.33 75.3043 241.161 77.7973C234.992 80.2902 229.381 83.9843 224.654 88.6644C219.928 93.3446 216.182 98.9172 213.632 105.058C211.083 111.199 209.782 117.784 209.806 124.432C209.829 131.08 211.176 137.657 213.768 143.779C216.361 149.902 220.147 155.448 224.906 160.095C229.665 164.742 235.302 168.396 241.488 170.846C247.675 173.295 254.287 174.491 260.941 174.363C274.107 174.11 286.646 168.695 295.851 159.288C305.057 149.88 310.19 137.235 310.144 124.08C310.097 110.925 304.875 98.3158 295.604 88.9734C286.333 79.631 273.756 74.3045 260.588 74.1436ZM268.031 97.219C268.016 97.0794 268.043 96.9383 268.11 96.8146C268.253 96.6059 268.41 96.332 268.619 96.2798C268.828 96.2276 269.05 96.4494 269.337 96.5929C268.802 97.1277 269.037 97.4277 269.494 97.6625C269.604 97.7151 269.699 97.7962 269.768 97.8973C269.888 98.2649 270.055 98.6156 270.264 98.9408C270.575 99.1923 270.923 99.3947 271.296 99.5409C270.994 99.8174 270.671 100.07 270.33 100.297C270 100.498 269.644 100.651 269.272 100.754C268.968 100.787 268.662 100.787 268.358 100.754C268.363 100.698 268.363 100.641 268.358 100.584L268.985 100.193C268.763 99.9191 268.436 99.6844 268.41 99.4235C268.384 99.1626 268.684 98.9017 268.867 98.6017C268.58 98.1321 268.162 97.9234 267.862 98.119C266.974 98.7191 266.908 98.8756 267.313 99.5148C266.739 99.7365 266.177 99.9583 265.589 100.167C265.459 99.5539 266.164 99.0191 265.589 98.4712C265.708 98.2707 265.879 98.1057 266.083 97.9932C266.288 97.8808 266.518 97.8252 266.752 97.8321H267.431C267.796 97.8582 268.084 97.6886 268.031 97.219ZM253.667 84.4486C254.843 84.6182 256.018 84.6965 257.193 84.7878C257.407 84.8287 257.628 84.8156 257.835 84.7495C258.043 84.6834 258.231 84.5666 258.381 84.4095C258.512 84.2399 258.825 84.2138 259.06 84.1747C259.974 84.0312 260.902 83.8616 261.816 83.7703C262.301 83.7053 262.793 83.7053 263.278 83.7703C264.401 83.9399 265.524 84.1617 266.634 84.3704C266.818 84.3946 266.99 84.4717 267.13 84.5921C266.673 84.5921 266.19 84.5921 265.733 84.6965C265.436 84.7179 265.145 84.7885 264.871 84.9052C264.453 85.1139 264.062 85.3356 264.036 85.9618C264.042 86.2669 263.941 86.5646 263.75 86.8029C263.559 87.0413 263.29 87.2052 262.991 87.2662C262.376 87.4881 261.778 87.754 261.202 88.0619C260.902 88.2054 260.902 88.375 261.202 88.5445C261.502 88.7141 262.051 89.0011 262.508 89.275C261.79 89.5489 261.79 89.5489 260.301 88.8576C260.51 89.2228 260.719 89.562 260.941 89.9142C259.988 90.162 258.995 90.449 258.003 90.6708C257.08 90.8281 256.218 91.234 255.509 91.8447C254.787 92.3513 253.935 92.641 253.054 92.6796C252.597 92.7709 252.218 92.8492 252.218 93.4622C252.218 93.684 252.009 93.9449 251.826 94.1275C251.581 94.355 251.309 94.5521 251.017 94.7145C250.78 94.8842 250.501 94.9848 250.211 95.0049C249.92 95.025 249.63 94.964 249.372 94.8285C249.115 94.6931 248.9 94.4886 248.752 94.2381C248.604 93.9875 248.529 93.7008 248.536 93.4101C248.497 93.0938 248.497 92.7741 248.536 92.4578C248.638 92.08 248.787 91.7163 248.98 91.3751C249.083 91.2366 249.201 91.1098 249.332 90.9969C249.635 90.7489 249.866 90.425 250.001 90.0585C250.137 89.692 250.173 89.296 250.105 88.9111C250.038 88.5262 249.869 88.1661 249.616 87.8679C249.363 87.5697 249.035 87.344 248.666 87.214C247.956 86.7902 247.164 86.5233 246.342 86.4314C246.062 86.3481 245.797 86.2204 245.558 86.0531C246.668 85.8705 247.739 85.727 248.784 85.5313C249.229 85.4004 249.666 85.2392 250.089 85.0487C251.205 84.542 252.434 84.3352 253.654 84.4486H253.667ZM264.649 92.0404C264.649 92.1687 264.619 92.2953 264.563 92.4105C264.506 92.5258 264.424 92.6267 264.323 92.7057C263.907 92.9594 263.47 93.1776 263.017 93.3579C262.813 93.4634 262.578 93.4938 262.353 93.4437C262.129 93.3937 261.929 93.2663 261.79 93.0839C261.646 92.9144 261.346 92.8622 261.124 92.7578C261.119 92.697 261.119 92.636 261.124 92.5752C261.336 92.4729 261.554 92.3815 261.777 92.3013C262.495 92.1056 263.187 91.923 263.892 91.7534C264.114 91.6752 264.519 91.6752 264.61 92.0404H264.649ZM239.669 86.0139C239.996 85.9096 240.335 85.8444 240.688 85.7531C241.04 85.6618 241.484 85.5835 241.641 85.0748C241.69 84.971 241.761 84.8789 241.849 84.8047C241.937 84.7305 242.04 84.6758 242.15 84.6443L242.646 84.553C243.169 84.4486 243.704 84.3573 244.239 84.279C244.68 84.261 245.117 84.1998 245.545 84.0964C246.319 83.8 247.148 83.6754 247.974 83.7312C248.231 83.7441 248.488 83.7441 248.744 83.7312H249.489C249.482 83.7919 249.482 83.8531 249.489 83.9138C248.6 84.6046 247.547 85.054 246.433 85.2182C244.893 85.473 243.424 86.0509 242.124 86.914C241.706 87.1749 241.288 87.3836 240.975 86.7575C240.975 86.6401 240.688 86.5749 240.505 86.5488C240.099 86.5108 239.698 86.441 239.303 86.34C239.406 86.2158 239.524 86.1061 239.656 86.0139H239.669ZM237.057 87.4488C237.057 87.4488 236.979 87.4488 236.914 87.3705C237.306 86.7183 237.723 86.5227 238.389 86.8357C238.706 86.9959 239.051 87.0922 239.405 87.119C239.759 87.1459 240.115 87.1028 240.453 86.9923C240.491 87.0237 240.526 87.0586 240.557 87.0966C240.453 87.2401 240.387 87.4488 240.257 87.501C240.126 87.5532 239.591 87.6575 239.251 87.7749C239.176 87.8058 239.108 87.8536 239.054 87.9147C238.999 87.9757 238.96 88.0484 238.938 88.1271C238.938 88.2054 239.095 88.401 239.212 88.4402L239.656 88.5576L243.156 89.5489C243.212 89.5838 243.26 89.6294 243.298 89.6832C243.336 89.7369 243.363 89.7977 243.378 89.862C243.37 90.0382 243.343 90.2131 243.299 90.3838C243.09 91.3099 243.299 91.6882 244.305 91.6882C244.314 91.8505 244.263 92.0104 244.162 92.1377C244.061 92.2651 243.916 92.3511 243.756 92.3796C243.129 92.5361 242.45 92.7448 241.902 92.9405C241.602 93.0318 241.301 93.1231 241.393 93.5405C241.385 93.641 241.338 93.7345 241.262 93.8014C241.001 93.9922 240.685 94.095 240.361 94.095C240.037 94.095 239.722 93.9922 239.46 93.8014C239.35 93.6802 239.275 93.5317 239.242 93.3715C239.209 93.2112 239.22 93.0451 239.273 92.8905C239.327 92.7358 239.421 92.5984 239.545 92.4924C239.67 92.3865 239.821 92.316 239.982 92.2882C240.348 92.1969 240.74 92.1708 241.119 92.0665C241.29 92.0296 241.44 91.9265 241.536 91.7795C241.536 91.6882 241.419 91.4664 241.301 91.3491C240.577 90.6683 239.669 90.2147 238.69 90.0446C238.402 90.0446 238.089 89.9664 237.789 89.9403C237.084 89.9403 236.365 89.8229 235.647 89.7446C235.347 89.7446 234.968 89.7446 234.942 89.2881C234.924 89.1926 234.928 89.0943 234.954 89.0007C234.979 88.907 235.026 88.8204 235.09 88.7475C235.154 88.6746 235.234 88.6172 235.324 88.5798C235.414 88.5424 235.511 88.5258 235.608 88.5315C236.085 88.5167 236.561 88.4687 237.031 88.388C237.24 88.388 237.541 88.2054 237.567 88.0619C237.58 87.6706 237.371 87.4227 237.005 87.4227L237.057 87.4488ZM243.26 101.302C243.443 101.511 243.769 101.837 243.717 102.006C243.673 102.186 243.562 102.341 243.407 102.441C243.251 102.541 243.063 102.576 242.881 102.541C242.245 102.458 241.604 102.41 240.962 102.398C241.512 101.597 242.296 100.986 243.208 100.65L242.751 101.054C242.916 101.11 243.071 101.194 243.208 101.302H243.26ZM245.023 145.952C244.508 146.287 244.034 146.681 243.613 147.126C243.369 147.525 243.209 147.969 243.143 148.431C242.958 149.265 242.727 150.088 242.45 150.896C242.255 151.353 241.693 151.653 241.341 152.07C241.074 152.426 240.685 152.671 240.249 152.758C239.813 152.844 239.359 152.767 238.977 152.54C238.781 153.101 239.16 153.466 239.395 153.844C239.734 154.457 239.734 154.457 239.147 154.862C238.629 155.271 238.132 155.706 237.658 156.166C237.481 156.328 237.352 156.535 237.285 156.765C237.219 156.995 237.217 157.239 237.279 157.471C237.278 157.911 237.221 158.349 237.11 158.775C237.048 158.991 237.017 159.215 237.018 159.44C237.018 159.871 237.201 160.288 237.253 160.745C237.345 161.462 237.397 162.206 237.462 162.936C237.462 163.21 237.567 163.38 237.893 163.406C237.974 163.425 238.05 163.462 238.116 163.514C238.181 163.566 238.234 163.631 238.272 163.706C238.468 164.123 238.637 164.541 238.807 165.01C238.695 165.099 238.567 165.164 238.429 165.202C238.291 165.239 238.147 165.249 238.005 165.229C237.864 165.21 237.728 165.162 237.605 165.088C237.483 165.015 237.376 164.917 237.293 164.801C237.026 164.303 236.591 163.914 236.065 163.706C235.206 163.335 234.514 162.662 234.119 161.814C233.542 160.981 233.249 159.984 233.284 158.971C233.367 158.623 233.319 158.258 233.151 157.943C232.983 157.628 232.705 157.386 232.37 157.262C232.226 157.262 232.135 156.949 232.108 156.766C232.03 156.062 231.991 155.331 231.926 154.627C231.782 153.101 231.599 151.588 231.508 150.074C231.508 148.94 231.508 147.792 231.508 146.657C231.508 146.135 231.508 145.626 231.508 145.131C231.455 144.469 231.203 143.839 230.786 143.322C230.369 142.806 229.806 142.427 229.17 142.235C228.827 142.172 228.518 141.986 228.302 141.713C228.086 141.439 227.977 141.096 227.995 140.748C228.006 140.437 227.927 140.131 227.767 139.864C227.607 139.598 227.373 139.384 227.094 139.248C226.335 138.829 225.761 138.14 225.488 137.317C225.385 137.069 225.229 136.847 225.031 136.665C224.828 136.472 224.68 136.23 224.599 135.962C224.519 135.695 224.51 135.411 224.574 135.139C224.593 134.763 224.567 134.386 224.496 134.017C224.442 133.768 224.42 133.514 224.43 133.26C224.534 132.528 224.802 131.827 225.214 131.212C225.663 130.552 226.035 129.843 226.324 129.099C226.487 128.697 226.51 128.252 226.389 127.836C226.268 127.42 226.011 127.056 225.658 126.803C225.538 126.752 225.409 126.726 225.279 126.726C225.149 126.726 225.02 126.752 224.9 126.803C224.665 126.96 224.384 127.036 224.102 127.019C223.819 127.003 223.549 126.895 223.333 126.712C222.396 126.122 221.627 125.299 221.1 124.325C221.009 124.188 220.876 124.083 220.722 124.025C220.492 123.934 220.25 123.882 220.004 123.868C219.344 123.821 218.73 123.516 218.293 123.021C218.032 122.746 217.712 122.534 217.356 122.403C217.001 122.272 216.62 122.224 216.243 122.264C216.14 122.291 216.032 122.291 215.929 122.264C214.406 121.871 213.019 121.068 211.921 119.942C211.758 119.724 211.644 119.474 211.585 119.209C211.527 118.944 211.525 118.669 211.581 118.403C211.974 115.351 212.665 112.345 213.644 109.428C215.121 104.937 217.251 100.687 219.964 96.8146C220.97 95.3667 222.132 93.9971 223.229 92.6013C223.386 92.3926 223.555 92.2882 223.79 92.4578C223.953 92.5565 224.134 92.6213 224.323 92.6482C224.511 92.6751 224.703 92.6636 224.887 92.6143C225.788 92.51 226.702 92.5491 227.577 92.3665C228.633 92.142 229.664 91.8188 230.659 91.4012C231.028 91.1923 231.343 90.9012 231.581 90.5505C231.819 90.1998 231.973 89.7991 232.03 89.3794C232.091 89.1446 232.169 88.9098 232.265 88.675C232.526 87.8141 232.526 87.8141 233.401 88.0097C234.028 88.1662 234.707 88.3097 235.229 88.4271C234.72 88.6098 234.185 88.7793 233.675 88.988C233.166 89.1967 233.323 89.3141 233.545 89.562C233.767 89.8098 234.237 90.436 234.603 90.8664C234.72 90.9708 234.981 91.0621 235.073 91.0099C235.81 90.717 236.608 90.6094 237.397 90.6968C237.194 91.0441 236.953 91.3678 236.679 91.6621C236.396 91.8794 236.064 92.0229 235.712 92.0795C234.811 92.2622 233.884 92.3796 232.97 92.523C232.917 92.8293 232.757 93.1067 232.517 93.3052C232.278 93.5036 231.976 93.6102 231.664 93.6057C230.481 93.8021 229.372 94.311 228.452 95.0797C228.124 95.2576 227.874 95.5513 227.751 95.9034C227.628 96.2555 227.64 96.6409 227.786 96.9842C227.878 97.2712 227.969 97.6494 228.439 97.4016C228.504 97.4016 228.661 97.4016 228.766 97.4929C229.21 97.7277 229.627 97.9755 230.071 98.1973C230.515 98.4191 230.803 98.6539 231.286 98.4843C231.39 98.4843 231.534 98.4843 231.534 98.4843C231.416 99.2148 231.299 99.867 231.168 100.597C231.424 100.611 231.679 100.558 231.908 100.444C232.136 100.33 232.332 100.158 232.474 99.9453C233.323 98.6408 234.224 97.519 235.086 96.3189C235.225 96.1502 235.351 95.9714 235.464 95.7841C235.704 95.3229 236.091 94.9552 236.565 94.74C237.038 94.5248 237.57 94.4745 238.076 94.5971C238.677 94.6884 239.081 94.8188 239.029 95.5363C239.029 95.6406 239.317 95.8233 239.473 95.8493C240.272 95.9086 241.069 95.7219 241.758 95.3145C241.801 95.424 241.832 95.5377 241.85 95.6537C241.869 95.8096 241.869 95.9673 241.85 96.1233C241.693 96.7134 241.756 97.3405 242.027 97.8876C242.299 98.4348 242.76 98.8647 243.325 99.0974L243.56 99.2148C242.693 100.041 241.558 100.531 240.361 100.597C239.532 100.593 238.716 100.809 237.998 101.224C237.398 101.503 236.778 101.739 236.143 101.928C235.919 102.062 235.717 102.229 235.543 102.424L235.621 102.58L237.985 102.371C237.893 102.945 237.985 103.285 238.598 103.337C238.82 103.337 239.016 103.676 239.303 103.911C238.298 104.106 237.776 105.215 236.483 104.954L237.501 104.015C237.031 103.48 236.901 103.428 236.274 103.832C235.647 104.237 235.086 104.706 234.485 105.137C234.328 105.254 234.185 105.437 234.015 105.463C232.97 105.659 232.461 106.52 231.782 107.198L231.638 107.341C231.506 107.518 231.337 107.664 231.144 107.77C230.95 107.876 230.736 107.939 230.515 107.954C230.309 107.954 230.109 108.028 229.954 108.163C229.77 108.325 229.649 108.547 229.614 108.789C229.654 109.229 229.557 109.669 229.338 110.052C229.118 110.435 228.786 110.741 228.387 110.929C227.662 111.302 226.972 111.739 226.324 112.233C226.048 112.516 225.863 112.873 225.791 113.261C225.719 113.649 225.763 114.049 225.919 114.411C226.041 114.663 226.105 114.94 226.105 115.22C226.105 115.5 226.041 115.777 225.919 116.029C225.919 116.159 225.566 116.264 225.37 116.264C225.175 116.264 225.044 116.081 225.005 115.938C224.848 115.285 224.731 114.633 224.574 113.955C224.484 113.734 224.37 113.524 224.234 113.329H224.104C224.104 113.577 224.104 113.824 224.104 114.072C224.07 114.118 224.025 114.154 223.973 114.177C223.79 113.981 223.634 113.785 223.451 113.616C223.202 113.383 222.926 113.181 222.628 113.016C222.475 112.942 222.3 112.931 222.139 112.985C221.978 113.038 221.845 113.152 221.766 113.303C221.44 113.72 221.074 114.111 220.748 114.49C220.48 114.16 220.192 113.846 219.886 113.55C219.822 113.496 219.746 113.457 219.665 113.437C219.583 113.417 219.498 113.415 219.416 113.433C218.78 113.532 218.204 113.862 217.797 114.359C217.373 114.873 216.901 115.345 216.386 115.768C216.157 115.931 215.996 116.173 215.934 116.447C215.871 116.721 215.911 117.009 216.047 117.255C216.107 117.477 216.107 117.711 216.047 117.933C215.93 118.544 216.047 119.176 216.377 119.703C216.706 120.23 217.223 120.614 217.823 120.777C218.141 120.886 218.487 120.878 218.8 120.757C219.113 120.635 219.373 120.406 219.533 120.112C219.664 119.825 219.755 119.525 219.886 119.238C219.912 119.152 219.955 119.072 220.014 119.005C220.073 118.937 220.146 118.883 220.228 118.846C220.309 118.809 220.398 118.789 220.488 118.79C220.578 118.79 220.666 118.809 220.748 118.846C220.85 118.95 220.927 119.076 220.972 119.214C221.017 119.352 221.03 119.498 221.009 119.642C220.896 120.135 220.748 120.619 220.565 121.09C220.395 121.638 220.565 121.873 221.074 122.003C221.584 122.134 221.91 122.134 222.38 122.186C222.494 122.178 222.609 122.198 222.714 122.243C222.819 122.288 222.913 122.357 222.986 122.445C223.06 122.532 223.112 122.636 223.138 122.747C223.165 122.859 223.164 122.975 223.137 123.086C223.079 123.702 223.079 124.322 223.137 124.938C223.237 125.296 223.431 125.62 223.699 125.877C223.797 125.939 223.91 125.971 224.025 125.971C224.141 125.971 224.254 125.939 224.352 125.877C224.543 125.751 224.762 125.675 224.99 125.654C225.218 125.634 225.447 125.67 225.658 125.76C225.814 125.825 225.997 125.864 226.154 125.916C226.911 126.099 227.107 125.916 227.629 125.408C227.962 125.086 228.346 124.821 228.766 124.625C228.83 124.606 228.899 124.605 228.964 124.624C229.028 124.642 229.087 124.679 229.131 124.729C229.163 124.782 229.181 124.843 229.181 124.905C229.181 124.968 229.163 125.028 229.131 125.082C228.713 125.447 228.935 125.629 229.301 125.786L230.189 126.164C229.614 125.238 230.372 124.925 230.711 124.364C230.842 124.469 230.985 124.534 231.103 124.638C231.344 124.907 231.644 125.116 231.979 125.25C232.314 125.383 232.676 125.437 233.036 125.408H233.14C234.115 125.419 235.049 125.801 235.752 126.477C236.736 127.327 237.916 127.919 239.186 128.199C239.459 128.246 239.718 128.354 239.944 128.514C240.17 128.674 240.357 128.883 240.492 129.125C240.727 129.517 241.027 129.869 241.262 130.247C241.641 130.847 241.523 131.265 240.897 131.552L240.296 131.852C240.453 132.152 240.648 132.243 240.936 132.073C241.149 131.952 241.377 131.86 241.615 131.799C241.785 131.799 241.967 131.943 242.111 132.06C242.255 132.178 242.033 132.269 241.993 132.386C241.954 132.504 241.915 132.673 241.993 132.686C242.102 132.756 242.23 132.788 242.359 132.778C242.465 132.765 242.563 132.714 242.633 132.634C242.737 132.517 242.865 132.424 243.008 132.36C243.151 132.296 243.306 132.263 243.462 132.263C243.619 132.263 243.774 132.296 243.917 132.36C244.06 132.424 244.188 132.517 244.292 132.634C244.357 132.699 244.488 132.739 244.488 132.791C244.566 133.665 245.154 133.313 245.532 133.169C245.715 133.099 245.911 133.068 246.107 133.08C246.303 133.091 246.494 133.144 246.668 133.234C247.569 133.626 248.523 133.939 249.476 134.278C249.615 134.314 249.739 134.395 249.828 134.508C249.918 134.621 249.968 134.76 249.972 134.904C250.072 135.641 250.007 136.39 249.781 137.099C249.555 137.807 249.174 138.457 248.666 139C248.592 139.098 248.493 139.175 248.379 139.222C247.961 139.404 247.935 139.743 247.922 140.122C247.926 141.093 247.878 142.064 247.778 143.031C247.654 143.626 247.448 144.201 247.164 144.739C246.956 145.183 246.747 145.639 246.041 145.522C245.819 145.521 245.603 145.594 245.428 145.731C245.258 145.77 245.127 145.874 245.023 145.952ZM297.595 142.039C297.203 143.004 296.968 144.048 296.642 145.039C296.535 145.335 296.39 145.616 296.211 145.874C295.728 146.8 295.728 146.8 294.722 146.618C294.337 146.487 294.019 146.209 293.838 145.845C293.657 145.481 293.627 145.06 293.756 144.674C294.021 144.349 294.241 143.989 294.409 143.604C294.506 143.175 294.506 142.729 294.409 142.3C294.392 142.002 294.468 141.706 294.627 141.454C294.787 141.201 295.02 141.005 295.297 140.891C295.444 140.874 295.581 140.81 295.689 140.709C296.185 140.213 296.694 139.691 297.164 139.169C297.274 139.006 297.366 138.831 297.438 138.648C297.888 139.726 297.934 140.93 297.569 142.039H297.595ZM307.114 116.238C306.97 116.054 306.782 115.91 306.568 115.819C306.353 115.728 306.119 115.692 305.887 115.716C304.272 115.811 302.655 115.557 301.147 114.972C300.063 114.696 299.028 114.257 298.078 113.668C297.301 113.258 296.464 112.976 295.597 112.833C295.646 112.967 295.677 113.108 295.689 113.25C295.493 114.45 296.394 115.011 297.086 115.703C297.386 115.99 297.673 116.29 298 116.642L300.076 116.081C300.319 116.003 300.582 116.011 300.819 116.103C301.057 116.196 301.256 116.368 301.382 116.59C301.742 117.019 302.13 117.425 302.544 117.803C302.91 118.207 302.818 118.312 302.4 118.625C301.263 119.26 300.236 120.075 299.358 121.038C299.258 121.181 299.129 121.301 298.979 121.39C298.313 121.821 297.673 122.225 296.981 122.694C296.752 122.825 296.497 122.904 296.235 122.926C295.972 122.948 295.707 122.914 295.459 122.825C295.211 122.736 294.985 122.594 294.797 122.409C294.609 122.225 294.463 122.002 294.37 121.755C294.077 120.793 293.583 119.904 292.92 119.146C292.594 118.666 292.335 118.144 292.15 117.594C291.878 117.022 291.416 116.562 290.844 116.29C290.581 116.193 290.343 116.037 290.151 115.833C289.958 115.629 289.816 115.384 289.734 115.116C289.473 114.372 289.094 113.642 288.781 112.898C288.036 113.211 288.036 113.211 288.245 113.942C288.611 115.203 289.161 116.403 289.878 117.503C291.13 119.202 292.182 121.041 293.012 122.981C293.194 123.503 293.325 124.064 293.534 124.573C293.847 125.342 294.2 125.434 294.918 125.016C294.992 124.963 295.077 124.928 295.166 124.912H297.987C297.879 125.668 297.726 126.417 297.53 127.156C297.364 127.78 297.061 128.36 296.642 128.851C295.99 129.405 295.296 129.907 294.566 130.351C294.38 130.468 294.228 130.63 294.122 130.821C293.312 132.308 292.541 133.795 291.745 135.269C291.536 135.647 291.471 135.947 291.745 136.261C292.855 137.448 292.528 138.869 292.541 140.317C292.541 140.474 292.293 140.67 292.111 140.774C291.209 141.173 290.403 141.76 289.747 142.496C289.489 142.815 289.31 143.19 289.225 143.591C289.071 144.789 288.685 145.946 288.089 146.996C287.188 148.522 286.391 150.127 285.568 151.692C285.503 151.864 285.389 152.015 285.241 152.126C285.093 152.236 284.917 152.303 284.733 152.318L282.317 152.462C281.964 152.462 281.625 152.566 281.272 152.592C281.111 152.604 280.95 152.563 280.815 152.475C280.528 152.253 280.28 151.979 280.058 151.783C280.071 150.978 279.864 150.184 279.457 149.487C279.302 149.235 279.128 148.995 278.935 148.77C278.401 148.004 278.114 147.094 278.112 146.161C278.068 145.647 277.912 145.148 277.655 144.7C277.054 143.788 276.679 142.746 276.558 141.661C276.562 141.051 276.672 140.446 276.885 139.874C276.962 139.628 277.067 139.392 277.198 139.169C277.444 138.68 277.49 138.114 277.329 137.591C276.942 135.786 276.177 134.083 275.083 132.595C274.968 132.397 274.908 132.172 274.908 131.943C274.908 131.714 274.968 131.489 275.083 131.291C275.252 130.946 275.44 130.611 275.644 130.286C275.84 129.999 275.827 129.764 275.475 129.634C275.304 129.584 275.15 129.489 275.03 129.358C274.911 129.226 274.829 129.065 274.795 128.891C274.795 128.786 274.495 128.63 274.352 128.643C274.002 128.681 273.648 128.638 273.318 128.518C272.987 128.399 272.689 128.205 272.445 127.951C272.197 127.703 271.648 127.703 271.218 127.677C270.906 127.694 270.598 127.756 270.303 127.86L266.007 128.891C265.662 128.969 265.301 128.953 264.964 128.845C264.626 128.738 264.324 128.542 264.088 128.277C263.962 128.138 263.822 128.011 263.67 127.899C263.361 127.715 263.103 127.456 262.92 127.146C262.737 126.836 262.636 126.485 262.625 126.125C262.599 125.968 262.536 125.82 262.44 125.693C262.345 125.566 262.22 125.464 262.077 125.395C260.771 124.977 260.588 123.803 260.236 122.786C260.213 122.627 260.224 122.465 260.266 122.31C260.309 122.155 260.383 122.011 260.484 121.886C260.648 121.739 260.761 121.543 260.806 121.327C260.85 121.111 260.825 120.886 260.732 120.686C260.494 120.153 260.394 119.569 260.442 118.987C260.49 118.406 260.684 117.846 261.006 117.359C261.334 116.639 261.842 116.014 262.482 115.546C262.73 115.377 262.795 114.946 263.03 114.751C263.749 114.085 264.257 113.223 264.493 112.272C264.695 111.884 264.98 111.546 265.328 111.281C265.851 110.785 266.412 110.328 266.934 109.833C267.222 109.572 267.418 109.546 267.627 109.911C267.675 109.982 267.739 110.041 267.814 110.084C267.888 110.127 267.972 110.152 268.057 110.159L270.434 109.846C270.665 109.779 270.901 109.731 271.139 109.702C272.286 109.728 273.422 109.482 274.456 108.985C274.696 108.895 274.96 108.895 275.2 108.985C275.279 108.985 275.279 109.337 275.266 109.533C275.271 109.803 275.339 110.068 275.463 110.308C275.588 110.548 275.766 110.755 275.984 110.915L277.146 112.037C277.224 112.103 277.316 112.207 277.407 112.22C278.191 112.35 278.987 112.494 279.797 112.559C280.188 112.559 280.45 112.416 280.58 111.933C280.711 111.45 281.116 111.294 281.39 110.981C281.385 111.037 281.385 111.094 281.39 111.15C281.554 111.324 281.738 111.477 281.938 111.607C282.352 111.841 282.789 112.029 283.244 112.168C283.586 112.22 283.934 112.22 284.276 112.168C284.471 112.148 284.668 112.148 284.863 112.168C285.699 112.285 286.522 112.389 287.357 112.559C287.491 112.59 287.631 112.584 287.762 112.543C287.892 112.502 288.01 112.426 288.102 112.324C288.465 112.137 288.751 111.828 288.909 111.451C289.066 111.074 289.086 110.653 288.964 110.263C288.883 109.911 288.826 109.554 288.794 109.194C288.533 109.095 288.254 109.056 287.976 109.078C287.698 109.101 287.429 109.185 287.188 109.324C286.899 109.514 286.555 109.6 286.211 109.569C285.867 109.539 285.544 109.392 285.294 109.155C284.465 108.645 283.855 107.845 283.584 106.911C284.393 107.315 284.72 106.82 285.098 106.102C284.093 106.337 283.192 106.52 282.304 106.767C282.215 106.788 282.132 106.83 282.063 106.889C281.994 106.948 281.941 107.024 281.907 107.109C281.874 107.193 281.861 107.285 281.871 107.375C281.881 107.466 281.913 107.553 281.964 107.628C282.03 107.729 282.062 107.848 282.056 107.967C282.021 108.17 281.959 108.368 281.873 108.554C281.625 108.45 281.259 108.411 281.155 108.202C281.05 107.994 280.907 107.537 280.489 107.407C280.458 107.392 280.431 107.37 280.411 107.343C280.39 107.316 280.377 107.284 280.371 107.25C280.45 106.402 279.705 105.946 279.353 105.372C279.276 105.293 279.185 105.231 279.084 105.189C278.983 105.146 278.875 105.124 278.765 105.124C278.491 105.127 278.221 105.063 277.978 104.938C277.734 104.813 277.525 104.63 277.368 104.406C277.243 104.214 277.083 104.046 276.898 103.911C276.624 103.702 276.284 103.559 276.023 103.911C275.951 103.972 275.894 104.048 275.854 104.134C275.815 104.219 275.794 104.312 275.794 104.406C275.794 104.501 275.815 104.594 275.854 104.679C275.894 104.765 275.951 104.841 276.023 104.902C276.506 105.474 277.12 105.921 277.812 106.206C278.027 106.302 278.22 106.44 278.379 106.613C278.539 106.786 278.661 106.989 278.739 107.211C278.567 107.349 278.365 107.446 278.149 107.493C277.933 107.54 277.709 107.536 277.495 107.482C277.281 107.427 277.083 107.324 276.916 107.179C276.748 107.035 276.617 106.854 276.532 106.65C276.363 106.402 276.171 106.17 275.958 105.959C275.628 105.523 275.265 105.113 274.874 104.733C274.338 104.25 273.294 104.211 273.176 105.137C273.159 105.235 273.133 105.331 273.098 105.424L272.745 105.319C272.444 105.204 272.11 105.204 271.809 105.319C271.507 105.435 271.26 105.658 271.113 105.946C270.982 106.141 270.787 106.311 270.643 106.493C270.494 106.634 270.375 106.803 270.29 106.989C270.202 107.366 270.007 107.71 269.73 107.98C269.452 108.251 269.103 108.436 268.723 108.515C267.731 108.684 266.726 108.767 265.72 108.763C265.616 108.735 265.52 108.68 265.443 108.605C265.365 108.53 265.308 108.436 265.276 108.333C265.191 107.64 265.191 106.939 265.276 106.246C265.351 105.897 265.549 105.588 265.835 105.374C266.121 105.161 266.474 105.058 266.83 105.085H268.945C269.207 105.085 269.376 105.006 269.35 104.68C269.337 104.559 269.337 104.436 269.35 104.315C269.494 103.48 269.455 103.389 268.697 102.945C268.475 102.815 268.227 102.724 268.005 102.593C267.783 102.463 267.757 102.398 267.77 102.306C267.784 102.241 267.814 102.181 267.857 102.131C267.901 102.081 267.956 102.042 268.018 102.019C268.281 101.939 268.553 101.891 268.828 101.876C269.377 101.888 269.917 101.739 270.382 101.447C270.846 101.155 271.214 100.732 271.44 100.232C271.547 99.9435 271.734 99.691 271.979 99.504C272.224 99.3171 272.517 99.2032 272.824 99.1756C273.829 99.0191 274.012 98.7582 274.13 97.7277C274.194 97.4623 274.286 97.2044 274.404 96.9581H274.613C274.786 97.3063 274.931 97.6684 275.044 98.0408C275.072 98.2328 275.16 98.4109 275.296 98.5493C275.432 98.6877 275.609 98.7791 275.801 98.8104C276.183 98.8431 276.568 98.8431 276.95 98.8104C277.616 98.7191 278.256 98.5886 278.922 98.4973C279.157 98.4973 279.301 98.4973 279.379 98.1451C279.457 97.7929 279.771 97.6755 279.993 97.4538C280.215 97.232 280.515 97.1277 280.528 96.7103C280.597 96.4814 280.736 96.28 280.926 96.1348C281.116 95.9896 281.347 95.9079 281.586 95.9015C281.798 95.9488 281.985 96.0747 282.108 96.2537C282.236 96.4985 282.337 96.7566 282.408 97.0233C282.751 96.7144 283.003 96.3178 283.136 95.8764C283.27 95.435 283.28 94.9656 283.166 94.5188C282.901 94.5976 282.63 94.6544 282.356 94.6884C281.975 94.7408 281.588 94.7408 281.207 94.6884C280.11 94.4536 279.901 93.9449 280.528 93.0318C280.737 92.7057 280.972 92.0534 280.868 91.9882C280.45 91.6752 280.071 92.0665 279.784 92.3274C279.072 92.902 278.552 93.6803 278.295 94.558C278.094 95.3315 277.777 96.0703 277.355 96.7494C277.185 97.0364 276.637 97.1538 276.245 97.2059C276.101 97.2059 275.866 96.8929 275.71 96.6842C275.559 96.4585 275.424 96.2232 275.305 95.9798C275.299 96.0362 275.299 96.093 275.305 96.1494L272.98 96.2668C272.941 96.1607 272.911 96.0516 272.889 95.9406C272.549 94.271 272.393 94.4927 274.012 93.8536C274.506 93.5809 274.948 93.2232 275.318 92.797L276.415 91.8578C276.489 91.8027 276.555 91.7368 276.611 91.6621C277.707 90.2012 279.34 89.9664 280.985 89.7055C282.46 89.6507 283.93 89.9132 285.294 90.4751L287.645 91.1664C286.574 92.0274 285.608 91.1664 284.694 91.323C284.694 91.323 284.628 91.4273 284.694 91.4404C285.215 92.0112 285.773 92.5472 286.365 93.0448C286.475 93.0991 286.596 93.1278 286.718 93.1287C286.841 93.1296 286.962 93.1026 287.073 93.0499C287.184 92.9971 287.281 92.9199 287.357 92.8241C287.434 92.7284 287.487 92.6165 287.514 92.497C287.606 92.1708 287.749 92.0143 288.102 92.0143C288.322 92.0096 288.536 91.9403 288.717 91.8151C288.898 91.6899 289.038 91.5142 289.12 91.3099C289.303 90.9577 289.538 90.8012 289.917 90.9447C289.917 91.3491 290.047 91.5317 290.452 91.4012C290.605 91.353 290.75 91.2827 290.883 91.1925C291.352 90.9048 291.903 90.7809 292.45 90.8403C293.218 90.7999 293.976 90.6415 294.696 90.3707C295.388 90.1881 295.754 90.2533 296.106 90.6447C299.348 93.9993 302.099 97.7933 304.281 101.915C306.896 106.8 308.662 112.093 309.504 117.568C309.511 117.624 309.511 117.681 309.504 117.738C308.29 117.816 307.702 116.916 307.088 116.238H307.114Z" fill="#8CC5F9"/>
<path d="M309.517 117.555C308.277 117.816 307.728 116.916 307.075 116.251C306.936 116.061 306.749 115.913 306.533 115.821C306.317 115.729 306.08 115.698 305.848 115.729C303.096 115.733 300.393 115.008 298.013 113.629C297.243 113.206 296.402 112.928 295.532 112.807C295.581 112.932 295.612 113.064 295.623 113.198C295.427 114.411 296.315 114.972 297.02 115.664C297.321 115.951 297.595 116.251 297.935 116.603L300.011 116.042C300.252 115.963 300.514 115.969 300.752 116.059C300.989 116.149 301.189 116.318 301.317 116.538C301.672 116.971 302.056 117.381 302.466 117.764C302.844 118.168 302.753 118.285 302.322 118.586C301.191 119.225 300.168 120.039 299.293 120.999C299.19 121.135 299.061 121.251 298.914 121.338C298.248 121.781 297.608 122.199 296.916 122.642C296.688 122.775 296.434 122.856 296.171 122.881C295.909 122.905 295.644 122.872 295.395 122.784C295.147 122.696 294.92 122.555 294.732 122.37C294.543 122.186 294.398 121.963 294.304 121.716C294.011 120.754 293.517 119.865 292.855 119.107C292.529 118.632 292.27 118.114 292.084 117.568C291.836 116.964 291.37 116.476 290.779 116.198C290.518 116.1 290.283 115.945 290.091 115.744C289.899 115.543 289.755 115.302 289.669 115.037C289.408 114.268 289.042 113.55 288.715 112.807C287.971 113.12 287.971 113.12 288.167 113.85C288.545 115.109 289.099 116.308 289.812 117.412C291.065 119.111 292.116 120.949 292.946 122.89C293.129 123.412 293.26 123.973 293.469 124.482C293.795 125.251 294.135 125.342 294.853 124.925C294.92 124.869 295.001 124.833 295.088 124.821H297.921C297.765 125.59 297.686 126.36 297.464 127.077C297.299 127.698 296.996 128.273 296.576 128.76C295.922 129.31 295.228 129.811 294.5 130.26C294.316 130.383 294.161 130.543 294.043 130.73C293.247 132.204 292.489 133.704 291.68 135.178C291.471 135.556 291.405 135.856 291.68 136.169C292.777 137.356 292.463 138.778 292.476 140.226C292.476 140.369 292.228 140.578 292.045 140.683C291.147 141.088 290.343 141.674 289.682 142.404C289.424 142.724 289.245 143.099 289.159 143.5C289.015 144.702 288.624 145.861 288.01 146.905C287.122 148.444 286.326 150.035 285.516 151.601C285.447 151.773 285.331 151.923 285.181 152.034C285.031 152.144 284.853 152.211 284.667 152.227C283.858 152.227 283.061 152.305 282.252 152.37C281.899 152.37 281.56 152.475 281.207 152.501C281.05 152.517 280.892 152.475 280.763 152.383C280.463 152.162 280.215 151.888 279.993 151.692C279.996 150.889 279.794 150.099 279.405 149.396C279.235 149.148 279.066 148.9 278.87 148.666C278.346 147.924 278.06 147.042 278.047 146.135C278.007 145.616 277.851 145.112 277.59 144.661C276.988 143.748 276.608 142.707 276.48 141.622C276.491 141.014 276.61 140.413 276.833 139.848C276.899 139.59 277.005 139.343 277.146 139.117C277.377 138.627 277.414 138.068 277.25 137.552C276.868 135.748 276.107 134.045 275.017 132.556C274.903 132.358 274.843 132.133 274.843 131.904C274.843 131.675 274.903 131.45 275.017 131.252C275.188 130.905 275.38 130.57 275.592 130.247C275.788 129.947 275.775 129.725 275.409 129.595C275.239 129.55 275.086 129.455 274.969 129.322C274.853 129.19 274.779 129.026 274.756 128.851C274.705 128.777 274.637 128.716 274.557 128.673C274.478 128.63 274.39 128.606 274.299 128.604C273.952 128.64 273.601 128.596 273.273 128.476C272.945 128.357 272.648 128.164 272.406 127.912C272.033 127.7 271.606 127.605 271.178 127.638C270.862 127.654 270.55 127.715 270.251 127.821L265.955 128.851C265.611 128.926 265.253 128.91 264.916 128.805C264.58 128.699 264.276 128.509 264.036 128.251C263.909 128.108 263.769 127.977 263.618 127.86C263.308 127.673 263.05 127.411 262.868 127.099C262.685 126.787 262.584 126.434 262.573 126.073C262.544 125.919 262.479 125.774 262.384 125.649C262.289 125.525 262.166 125.424 262.025 125.355C260.719 124.938 260.549 123.764 260.197 122.747C260.168 122.591 260.175 122.43 260.215 122.277C260.256 122.124 260.33 121.981 260.432 121.86C260.596 121.712 260.707 121.515 260.75 121.299C260.792 121.082 260.763 120.858 260.667 120.66C260.438 120.124 260.344 119.541 260.394 118.961C260.444 118.38 260.636 117.822 260.954 117.333C261.282 116.613 261.791 115.989 262.429 115.52C262.678 115.351 262.743 114.92 262.978 114.724C263.697 114.058 264.205 113.197 264.44 112.246C264.643 111.858 264.928 111.52 265.276 111.255C265.798 110.759 266.36 110.302 266.882 109.807C267.17 109.546 267.365 109.507 267.587 109.885C267.631 109.958 267.692 110.019 267.765 110.062C267.838 110.105 267.92 110.13 268.005 110.133C268.789 110.042 269.585 109.924 270.382 109.807C270.617 109.744 270.858 109.701 271.1 109.676C272.242 109.694 273.372 109.448 274.404 108.959C274.639 108.868 274.9 108.868 275.135 108.959C275.226 108.959 275.226 109.324 275.213 109.507C275.216 109.777 275.282 110.044 275.407 110.284C275.532 110.524 275.711 110.732 275.932 110.889C276.31 111.268 276.715 111.633 277.107 111.998C277.172 112.076 277.25 112.181 277.342 112.194C278.138 112.324 278.935 112.468 279.731 112.533C280.136 112.533 280.397 112.389 280.541 111.907C280.685 111.424 281.05 111.268 281.325 110.955L281.403 111.124C281.571 111.298 281.76 111.451 281.964 111.581C282.378 111.815 282.816 112.003 283.27 112.142C283.613 112.187 283.959 112.187 284.302 112.142C284.497 112.122 284.694 112.122 284.889 112.142C285.712 112.259 286.561 112.363 287.384 112.533C287.517 112.562 287.656 112.556 287.787 112.515C287.918 112.474 288.035 112.399 288.128 112.298C288.491 112.111 288.777 111.802 288.935 111.425C289.093 111.048 289.112 110.627 288.99 110.237C288.915 109.889 288.863 109.536 288.833 109.181C288.571 109.08 288.29 109.038 288.01 109.059C287.73 109.079 287.458 109.161 287.214 109.298C286.925 109.485 286.581 109.57 286.238 109.54C285.895 109.509 285.572 109.364 285.32 109.128C284.491 108.619 283.881 107.819 283.61 106.885C284.406 107.289 284.746 106.793 285.125 106.076C284.119 106.311 283.218 106.493 282.33 106.754C282.241 106.773 282.159 106.813 282.089 106.871C282.02 106.929 281.966 107.003 281.932 107.087C281.899 107.171 281.887 107.262 281.897 107.352C281.907 107.442 281.939 107.528 281.991 107.602C282.053 107.709 282.084 107.831 282.082 107.954C282.037 108.149 281.981 108.341 281.912 108.528C281.651 108.424 281.285 108.372 281.181 108.189C281.076 108.007 280.92 107.511 280.528 107.38C280.495 107.367 280.466 107.345 280.444 107.318C280.421 107.291 280.405 107.259 280.397 107.224C280.476 106.376 279.731 105.92 279.379 105.346C279.301 105.189 279 105.111 278.791 105.098C278.518 105.096 278.25 105.031 278.007 104.906C277.764 104.781 277.554 104.601 277.394 104.38C277.265 104.191 277.106 104.023 276.924 103.885C276.65 103.663 276.31 103.519 276.036 103.885C275.965 103.945 275.907 104.019 275.868 104.104C275.828 104.188 275.808 104.281 275.808 104.374C275.808 104.467 275.828 104.559 275.868 104.644C275.907 104.728 275.965 104.803 276.036 104.863C276.519 105.435 277.132 105.882 277.825 106.167C278.039 106.265 278.231 106.404 278.39 106.576C278.549 106.749 278.672 106.951 278.752 107.172C278.58 107.31 278.378 107.407 278.162 107.454C277.946 107.501 277.722 107.497 277.508 107.442C277.294 107.388 277.096 107.284 276.929 107.14C276.761 106.996 276.63 106.815 276.545 106.611C276.377 106.366 276.189 106.135 275.984 105.92C275.642 105.486 275.276 105.072 274.887 104.68C274.352 104.211 273.307 104.172 273.189 105.098C273.178 105.197 273.152 105.294 273.111 105.385L272.758 105.28C272.459 105.164 272.126 105.162 271.825 105.275C271.524 105.388 271.275 105.608 271.126 105.893C270.996 106.102 270.8 106.259 270.656 106.454C270.503 106.599 270.379 106.772 270.29 106.963C270.205 107.335 270.014 107.674 269.741 107.94C269.468 108.206 269.124 108.388 268.75 108.463C267.75 108.642 266.736 108.73 265.72 108.724C265.617 108.693 265.523 108.635 265.447 108.558C265.372 108.48 265.318 108.385 265.289 108.281C265.21 107.591 265.21 106.896 265.289 106.206C265.356 105.859 265.548 105.548 265.83 105.334C266.112 105.119 266.464 105.017 266.817 105.046C267.522 105.046 268.227 105.046 268.932 105.046C269.207 105.046 269.376 104.954 269.35 104.641C269.337 104.52 269.337 104.397 269.35 104.276C269.494 103.454 269.455 103.35 268.697 102.906C268.475 102.776 268.227 102.685 268.005 102.554C267.783 102.424 267.757 102.358 267.77 102.267C267.784 102.202 267.814 102.142 267.857 102.092C267.901 102.041 267.956 102.003 268.018 101.98C268.287 101.906 268.563 101.858 268.841 101.837C269.39 101.853 269.932 101.705 270.397 101.412C270.863 101.119 271.23 100.695 271.453 100.193C271.56 99.9043 271.747 99.6519 271.992 99.4649C272.237 99.2779 272.53 99.164 272.837 99.1365C273.842 98.9799 274.012 98.7191 274.143 97.6886C274.209 97.4237 274.3 97.1659 274.417 96.919H274.639C274.805 97.2689 274.945 97.6308 275.057 98.0016C275.161 98.4321 275.383 98.7191 275.814 98.7582C276.196 98.8039 276.581 98.8039 276.963 98.7582C277.629 98.6799 278.269 98.5495 278.935 98.4712C279.183 98.4712 279.327 98.4712 279.405 98.106C279.483 97.7407 279.784 97.6364 280.006 97.4146C280.228 97.1929 280.528 97.0885 280.541 96.6581C280.554 96.2276 281.233 95.8102 281.612 95.8624C281.821 95.9171 282.002 96.0472 282.121 96.2276C282.251 96.4668 282.352 96.7209 282.421 96.9842C282.757 96.6703 283.004 96.2734 283.137 95.8336C283.27 95.3939 283.285 94.9268 283.179 94.4797C282.91 94.5611 282.635 94.6178 282.356 94.6492C281.98 94.7079 281.597 94.7079 281.22 94.6492C280.123 94.4144 279.914 93.9188 280.541 92.9926C280.75 92.6796 280.972 92.0143 280.881 91.936C280.463 91.636 280.084 92.0273 279.797 92.2882C279.087 92.8651 278.568 93.6425 278.308 94.5188C278.109 95.293 277.792 96.032 277.368 96.7102C277.185 96.9972 276.65 97.1146 276.258 97.1668C276.101 97.1668 275.879 96.8537 275.723 96.645C275.575 96.4177 275.44 96.1825 275.318 95.9406V96.1102L272.993 96.2276C272.993 96.0972 272.915 96.0059 272.889 95.9015C272.563 94.2188 272.406 94.4536 274.012 93.8144C274.499 93.537 274.94 93.1849 275.318 92.7709L276.415 91.8056C276.486 91.7562 276.552 91.6994 276.611 91.636C277.707 90.162 279.34 89.9272 280.985 89.6663C282.466 89.6109 283.94 89.878 285.307 90.449C286.039 90.6447 286.77 90.8794 287.645 91.1273C286.587 91.9752 285.608 91.1273 284.681 91.2838V91.4012C285.206 91.9682 285.769 92.4999 286.365 92.9926C286.77 93.2927 287.384 92.9926 287.527 92.4578C287.671 91.923 287.749 91.9752 288.089 91.9752C288.312 91.9706 288.53 91.9017 288.715 91.7767C288.9 91.6518 289.045 91.4761 289.133 91.2708C289.303 90.9186 289.538 90.7621 289.917 90.9055C289.917 91.323 290.047 91.4925 290.452 91.3621C290.601 91.3138 290.742 91.2434 290.87 91.1534C291.35 90.869 291.908 90.7456 292.463 90.8012C293.226 90.7574 293.978 90.6037 294.696 90.3446C294.929 90.2303 295.192 90.1927 295.448 90.2372C295.704 90.2817 295.939 90.4061 296.119 90.5925C299.354 93.9577 302.105 97.755 304.294 101.876C306.881 106.767 308.624 112.059 309.452 117.529L309.517 117.555Z" fill="white"/>
<path d="M231.508 98.3539L231.142 100.454C231.4 100.47 231.657 100.417 231.886 100.3C232.116 100.183 232.31 100.007 232.448 99.7887C233.297 98.5756 234.198 97.3886 235.06 96.1885C235.202 96.01 235.333 95.8226 235.451 95.6276C235.691 95.1663 236.078 94.7987 236.552 94.5835C237.025 94.3683 237.557 94.318 238.063 94.4406C238.664 94.5319 239.081 94.6623 239.029 95.3798C239.029 95.4841 239.29 95.6667 239.46 95.6928C240.254 95.7493 241.047 95.5628 241.732 95.158C241.779 95.2671 241.814 95.3808 241.837 95.4972C241.856 95.6531 241.856 95.8108 241.837 95.9668C241.68 96.5551 241.744 97.1803 242.016 97.7252C242.287 98.2702 242.748 98.6977 243.312 98.9278L243.547 99.0452C242.68 99.8744 241.546 100.369 240.348 100.441C239.523 100.435 238.711 100.651 237.998 101.067C237.392 101.344 236.768 101.58 236.13 101.771C235.91 101.91 235.708 102.077 235.53 102.267L235.608 102.424L237.972 102.215C237.88 102.789 237.972 103.128 238.585 103.193C238.807 103.193 239.016 103.506 239.303 103.741C238.272 103.95 237.763 105.046 236.483 104.798L237.488 103.859C237.005 103.337 236.888 103.285 236.261 103.676C235.634 104.067 235.073 104.55 234.472 104.98C234.315 105.098 234.172 105.28 234.002 105.32C232.957 105.502 232.448 106.363 231.782 107.041C231.628 107.25 231.432 107.425 231.208 107.555C230.983 107.685 230.734 107.768 230.476 107.798C230.27 107.797 230.07 107.871 229.915 108.007C229.729 108.167 229.608 108.39 229.575 108.633C229.618 109.071 229.522 109.511 229.302 109.892C229.082 110.273 228.748 110.576 228.348 110.759C227.629 111.142 226.939 111.578 226.284 112.063C226.009 112.343 225.825 112.7 225.755 113.086C225.685 113.472 225.733 113.87 225.893 114.229C226.012 114.484 226.074 114.762 226.074 115.044C226.074 115.326 226.012 115.604 225.893 115.859C225.893 115.99 225.54 116.094 225.344 116.107C225.148 116.12 225.031 115.911 224.992 115.768C224.822 115.116 224.718 114.464 224.548 113.785C224.455 113.562 224.342 113.348 224.208 113.146L224.078 113.211V113.968L223.947 114.059C223.783 113.867 223.609 113.684 223.425 113.511C223.177 113.273 222.901 113.067 222.602 112.898C222.451 112.824 222.277 112.811 222.116 112.862C221.955 112.913 221.821 113.024 221.74 113.172C221.421 113.585 221.081 113.981 220.722 114.359C220.45 114.036 220.163 113.727 219.86 113.433C219.793 113.379 219.715 113.341 219.631 113.321C219.548 113.3 219.461 113.299 219.377 113.316C218.753 113.417 218.186 113.742 217.784 114.229C217.36 114.743 216.888 115.215 216.373 115.638C216.138 115.802 215.971 116.047 215.906 116.327C215.841 116.606 215.882 116.9 216.021 117.151C216.08 117.364 216.08 117.589 216.021 117.803C215.903 118.415 216.02 119.049 216.35 119.578C216.679 120.108 217.195 120.494 217.797 120.66C218.115 120.768 218.461 120.761 218.774 120.639C219.087 120.517 219.347 120.289 219.507 119.994C219.638 119.707 219.742 119.407 219.86 119.12C219.885 119.034 219.929 118.955 219.988 118.887C220.047 118.82 220.12 118.765 220.201 118.728C220.283 118.691 220.372 118.672 220.462 118.672C220.551 118.672 220.64 118.692 220.722 118.729C220.905 118.82 221.022 119.264 220.983 119.525C220.868 120.023 220.716 120.511 220.526 120.986C220.356 121.521 220.526 121.755 221.048 121.886C221.571 122.016 221.884 122.016 222.354 122.068C222.469 122.063 222.583 122.085 222.689 122.131C222.794 122.178 222.887 122.248 222.96 122.337C223.033 122.425 223.085 122.53 223.111 122.641C223.138 122.753 223.138 122.87 223.111 122.981C223.046 123.588 223.046 124.201 223.111 124.808C223.21 125.173 223.403 125.506 223.673 125.773C223.774 125.824 223.886 125.851 223.999 125.851C224.113 125.851 224.225 125.824 224.326 125.773C224.514 125.64 224.734 125.559 224.963 125.539C225.192 125.518 225.423 125.558 225.632 125.656L226.141 125.786C226.885 125.969 227.094 125.786 227.59 125.29C227.93 124.971 228.318 124.707 228.739 124.508C228.803 124.491 228.87 124.491 228.934 124.507C228.998 124.522 229.057 124.554 229.105 124.599C229.14 124.653 229.158 124.717 229.158 124.782C229.158 124.846 229.14 124.91 229.105 124.964C228.7 125.329 228.922 125.512 229.288 125.669L230.176 126.034C229.614 125.121 230.359 124.808 230.698 124.26C230.835 124.33 230.963 124.417 231.077 124.521C231.324 124.788 231.629 124.997 231.968 125.13C232.307 125.263 232.672 125.318 233.036 125.29C234.039 125.277 235.006 125.662 235.726 126.36C236.71 127.217 237.896 127.809 239.173 128.082C239.445 128.131 239.703 128.24 239.929 128.4C240.154 128.56 240.342 128.768 240.479 129.008C240.714 129.399 241.014 129.751 241.262 130.13C241.351 130.232 241.412 130.354 241.441 130.486C241.47 130.618 241.466 130.755 241.428 130.885C241.39 131.015 241.321 131.133 241.226 131.229C241.131 131.325 241.013 131.395 240.883 131.434L240.283 131.708C240.453 132.021 240.622 132.112 240.923 131.943C241.131 131.815 241.361 131.726 241.602 131.682C241.787 131.708 241.96 131.79 242.098 131.917C242.098 131.917 242.02 132.139 241.98 132.256C241.941 132.373 241.889 132.543 241.98 132.569C242.091 132.634 242.218 132.666 242.346 132.66C242.451 132.637 242.547 132.582 242.62 132.504C242.723 132.385 242.851 132.29 242.994 132.224C243.137 132.159 243.292 132.125 243.449 132.125C243.607 132.125 243.762 132.159 243.905 132.224C244.048 132.29 244.176 132.385 244.279 132.504C244.344 132.504 244.474 132.595 244.474 132.66C244.553 133.521 245.14 133.169 245.519 133.026C245.699 132.952 245.894 132.92 246.088 132.931C246.282 132.942 246.472 132.997 246.642 133.091C247.569 133.482 248.509 133.808 249.463 134.121C249.605 134.16 249.73 134.243 249.822 134.358C249.913 134.473 249.966 134.614 249.972 134.76C250.069 135.495 250.003 136.242 249.777 136.948C249.551 137.654 249.172 138.301 248.666 138.843C248.596 138.949 248.496 139.031 248.379 139.078C247.961 139.261 247.922 139.6 247.922 139.991C247.922 140.956 247.922 141.935 247.778 142.887C247.65 143.481 247.444 144.056 247.164 144.596C246.956 145.039 246.747 145.496 246.041 145.378C245.728 145.378 245.323 145.639 245.01 145.861C244.489 146.183 244.015 146.573 243.6 147.022C243.357 147.421 243.197 147.865 243.129 148.327C242.954 149.163 242.723 149.986 242.437 150.792C242.242 151.261 241.68 151.561 241.327 151.966C241.067 152.329 240.678 152.58 240.24 152.67C239.802 152.759 239.346 152.68 238.964 152.449C238.768 153.022 239.147 153.375 239.369 153.753C239.721 154.366 239.721 154.353 239.134 154.77C238.616 155.18 238.119 155.615 237.645 156.075C237.474 156.241 237.348 156.448 237.279 156.676C237.211 156.904 237.202 157.147 237.253 157.379C237.259 157.82 237.201 158.259 237.084 158.684C237.028 158.897 236.997 159.116 236.992 159.336C236.992 159.766 237.188 160.197 237.24 160.64C237.332 161.371 237.384 162.101 237.449 162.819C237.449 163.093 237.554 163.275 237.893 163.301C238.024 163.301 238.194 163.471 238.259 163.601C238.455 164.006 238.611 164.436 238.794 164.906C238.68 164.993 238.551 165.057 238.412 165.094C238.273 165.131 238.129 165.14 237.987 165.12C237.845 165.101 237.708 165.053 237.584 164.981C237.46 164.908 237.352 164.812 237.266 164.697C236.999 164.199 236.564 163.811 236.039 163.601C235.185 163.233 234.5 162.558 234.119 161.71C233.53 160.882 233.236 159.881 233.284 158.866C233.36 158.518 233.308 158.153 233.138 157.84C232.968 157.526 232.691 157.284 232.357 157.158C232.226 157.158 232.121 156.844 232.095 156.675C232.017 155.957 231.978 155.24 231.913 154.523C231.769 152.996 231.586 151.483 231.495 149.97C231.495 148.835 231.495 147.687 231.495 146.552C231.495 146.031 231.495 145.522 231.495 145.013C231.441 144.354 231.189 143.725 230.772 143.211C230.355 142.697 229.792 142.32 229.157 142.13C228.814 142.068 228.505 141.882 228.289 141.608C228.073 141.335 227.964 140.992 227.982 140.643C227.99 140.334 227.91 140.028 227.75 139.762C227.59 139.497 227.358 139.282 227.081 139.143C226.325 138.721 225.753 138.033 225.475 137.213C225.37 136.973 225.219 136.756 225.031 136.574C224.825 136.38 224.673 136.137 224.591 135.867C224.508 135.597 224.498 135.31 224.561 135.034C224.58 134.659 224.553 134.282 224.482 133.913C224.428 133.66 224.406 133.401 224.417 133.143C224.526 132.415 224.793 131.721 225.201 131.108C225.65 130.448 226.022 129.739 226.311 128.995C226.469 128.592 226.49 128.149 226.369 127.734C226.249 127.318 225.994 126.954 225.645 126.699C225.528 126.644 225.401 126.616 225.272 126.616C225.144 126.616 225.017 126.644 224.9 126.699C224.659 126.845 224.378 126.915 224.096 126.898C223.814 126.882 223.544 126.781 223.32 126.608C222.384 126.011 221.615 125.184 221.087 124.208C220.993 124.07 220.862 123.961 220.709 123.895C220.475 123.818 220.235 123.765 219.99 123.738C219.664 123.72 219.344 123.637 219.05 123.494C218.757 123.351 218.494 123.15 218.28 122.903C218.019 122.628 217.699 122.417 217.343 122.286C216.988 122.155 216.607 122.107 216.23 122.147C216.126 122.166 216.02 122.166 215.916 122.147C214.395 121.749 213.013 120.941 211.921 119.812C211.753 119.597 211.634 119.347 211.573 119.081C211.512 118.815 211.51 118.539 211.568 118.272C211.969 115.228 212.655 112.227 213.618 109.311C215.099 104.815 217.233 100.561 219.951 96.6842C220.957 95.2232 222.119 93.8797 223.203 92.4709C223.373 92.2622 223.542 92.1709 223.777 92.3404C223.943 92.438 224.127 92.5011 224.318 92.5257C224.508 92.5504 224.702 92.5362 224.887 92.4839C225.775 92.3796 226.689 92.4187 227.499 92.2361C228.559 92.0137 229.595 91.6905 230.594 91.2708C230.964 91.0619 231.281 90.771 231.521 90.4205C231.761 90.07 231.917 89.6692 231.978 89.2489C232.043 89.0142 232.121 88.7794 232.187 88.5446C232.448 87.6836 232.448 87.6836 233.349 87.8923L235.164 88.2967C234.655 88.4793 234.119 88.6489 233.61 88.8576C233.31 88.975 233.258 89.1707 233.48 89.4316C233.702 89.6925 234.172 90.3186 234.55 90.736C234.608 90.7978 234.679 90.8445 234.759 90.8719C234.839 90.8992 234.924 90.9063 235.007 90.8925C235.739 90.5937 236.534 90.4859 237.319 90.5795C237.124 90.9289 236.887 91.2532 236.613 91.5447C236.331 91.762 235.999 91.9055 235.647 91.9622C234.746 92.1448 233.819 92.2622 232.905 92.4057C232.855 92.7143 232.696 92.9947 232.456 93.1959C232.216 93.397 231.912 93.5054 231.599 93.5014C230.419 93.6868 229.312 94.1921 228.4 94.9623C228.067 95.1358 227.813 95.4285 227.687 95.7816C227.561 96.1347 227.573 96.5223 227.721 96.8668C227.812 97.1538 227.904 97.519 228.374 97.2973C228.452 97.2973 228.596 97.2973 228.7 97.3886C229.131 97.6103 229.562 97.8582 230.006 98.0799C230.45 98.3017 230.737 98.5365 231.22 98.3799C231.263 98.3548 231.312 98.3394 231.361 98.3349C231.411 98.3304 231.461 98.3369 231.508 98.3539Z" fill="white"/>
<path d="M245.467 86.1183C246.59 85.9357 247.661 85.7922 248.705 85.5835C249.153 85.4627 249.589 85.3057 250.011 85.1139C251.135 84.5701 252.384 84.336 253.628 84.4356C254.79 84.6052 255.966 84.6834 257.141 84.7747C257.358 84.8164 257.582 84.8023 257.792 84.7339C258.002 84.6655 258.191 84.5449 258.342 84.3834C258.46 84.2269 258.786 84.2008 259.021 84.1617C259.935 84.0182 260.849 83.8486 261.777 83.7573C262.262 83.6922 262.754 83.6922 263.239 83.7573C264.362 83.9399 265.485 84.1486 266.608 84.3573C266.788 84.3785 266.958 84.4561 267.091 84.5791C266.621 84.5791 266.151 84.5791 265.694 84.6834C265.397 84.7065 265.106 84.777 264.832 84.8921C264.414 85.1009 264.023 85.3357 264.009 85.9487C264.003 86.2526 263.896 86.5456 263.704 86.7818C263.513 87.0179 263.248 87.1838 262.952 87.2532C262.342 87.4861 261.744 87.7518 261.163 88.0489C260.849 88.1924 260.849 88.3619 261.163 88.5315L262.469 89.2489C261.75 89.5359 261.75 89.5359 260.262 88.8576L260.902 89.9012C259.935 90.149 258.956 90.436 257.964 90.6577C257.045 90.8288 256.186 91.2331 255.469 91.8317C254.747 92.337 253.896 92.6265 253.015 92.6665C252.557 92.7448 252.179 92.8361 252.192 93.4622C252.133 93.7184 251.991 93.9478 251.787 94.1145C251.544 94.3389 251.277 94.5358 250.991 94.7015C250.754 94.8749 250.474 94.9786 250.181 95.0008C249.889 95.0229 249.596 94.9626 249.336 94.8267C249.076 94.6908 248.86 94.4847 248.711 94.232C248.563 93.9792 248.488 93.6899 248.496 93.397C248.451 93.0856 248.451 92.7693 248.496 92.4578C248.584 92.0771 248.729 91.712 248.927 91.3752C249.019 91.2237 249.139 91.091 249.28 90.9838C249.582 90.7358 249.813 90.412 249.949 90.0455C250.085 89.679 250.121 89.283 250.053 88.8981C249.985 88.5131 249.816 88.1531 249.564 87.8549C249.311 87.5567 248.983 87.331 248.614 87.201C247.91 86.7751 247.121 86.508 246.303 86.4183C246.007 86.3739 245.723 86.2719 245.467 86.1183Z" fill="white"/>
<path d="M236.875 87.4227C237.253 86.7705 237.671 86.5748 238.324 86.8748C238.641 87.0418 238.989 87.1418 239.346 87.1687C239.703 87.1957 240.062 87.1489 240.4 87.0314L240.505 87.1488C240.413 87.2923 240.335 87.501 240.204 87.5662C240.074 87.6314 239.525 87.7097 239.212 87.8271C239.136 87.8566 239.068 87.9023 239.012 87.9608C238.955 88.0194 238.912 88.0895 238.886 88.1662C238.886 88.2575 239.042 88.4532 239.16 88.4923L243.077 89.6011C243.139 89.6331 243.193 89.6794 243.234 89.736C243.275 89.7927 243.302 89.8582 243.312 89.9272C243.306 90.1003 243.275 90.2715 243.221 90.4359C243.012 91.3751 243.221 91.7404 244.239 91.7404C244.246 91.902 244.194 92.0605 244.093 92.1873C243.993 92.314 243.85 92.4007 243.691 92.4317C243.064 92.6013 242.385 92.7839 241.824 92.9926C241.549 93.0839 241.249 93.1752 241.327 93.5926C241.327 93.6709 241.262 93.7883 241.197 93.8535C240.934 94.0406 240.619 94.1411 240.296 94.1411C239.973 94.1411 239.658 94.0406 239.395 93.8535C239.285 93.7323 239.21 93.5839 239.177 93.4236C239.144 93.2634 239.155 93.0973 239.208 92.9426C239.261 92.788 239.355 92.6505 239.48 92.5446C239.605 92.4386 239.756 92.3681 239.917 92.3404C240.283 92.2491 240.675 92.223 241.053 92.1187C241.225 92.0818 241.375 91.9786 241.471 91.8317C241.471 91.7404 241.354 91.5186 241.236 91.4143C240.277 90.5407 239.034 90.0448 237.736 90.0185C237.018 90.0185 236.3 89.9011 235.582 89.8228C235.282 89.8228 234.89 89.8229 234.864 89.3663C234.848 89.2689 234.854 89.1692 234.882 89.0746C234.91 88.98 234.959 88.8931 235.026 88.8202C235.093 88.7474 235.175 88.6906 235.267 88.6541C235.358 88.6177 235.457 88.6025 235.556 88.6097C236.028 88.5878 236.499 88.5399 236.966 88.4663C237.162 88.4663 237.475 88.2836 237.501 88.1401C237.567 87.801 237.358 87.5792 236.979 87.5792C236.966 87.4227 236.94 87.4227 236.875 87.4227Z" fill="white"/>
<path d="M297.412 138.687C297.861 139.75 297.916 140.938 297.569 142.039C297.177 143.004 296.942 144.048 296.616 145.039C296.503 145.334 296.363 145.618 296.198 145.887C295.702 146.8 295.702 146.8 294.696 146.618C294.504 146.554 294.327 146.454 294.174 146.322C294.022 146.189 293.897 146.028 293.807 145.847C293.717 145.667 293.664 145.47 293.651 145.268C293.637 145.067 293.664 144.865 293.73 144.674C293.986 144.342 294.205 143.984 294.383 143.604C294.48 143.175 294.48 142.729 294.383 142.3C294.362 142.003 294.438 141.708 294.597 141.457C294.757 141.206 294.993 141.012 295.271 140.904C295.416 140.874 295.551 140.806 295.662 140.709C296.172 140.2 296.668 139.691 297.138 139.169C297.248 139.02 297.34 138.858 297.412 138.687Z" fill="white"/>
<path d="M249.45 83.8354C248.558 84.5222 247.507 84.971 246.394 85.1399C244.854 85.3946 243.385 85.9726 242.085 86.8356C241.654 87.0965 241.236 87.3182 240.923 86.666C240.857 86.5486 240.622 86.4834 240.466 86.4573C240.056 86.4154 239.65 86.3413 239.251 86.2356C239.367 86.128 239.499 86.0399 239.643 85.9747C239.982 85.8703 240.335 85.8051 240.675 85.7138C241.014 85.6225 241.484 85.5442 241.628 85.0355C241.675 84.9302 241.745 84.8369 241.833 84.7624C241.922 84.6878 242.025 84.6341 242.137 84.605C242.816 84.4485 243.521 84.3572 244.226 84.2398C244.667 84.2286 245.105 84.1673 245.532 84.0572C246.306 83.762 247.135 83.6374 247.961 83.6919C248.218 83.7054 248.475 83.7054 248.731 83.6919H249.476L249.45 83.8354Z" fill="white"/>
<path d="M268.854 98.6016C268.554 98.1451 268.123 97.9364 267.822 98.132C266.948 98.7321 266.882 98.8886 267.287 99.5278L265.563 100.18C265.433 99.5799 266.138 99.0321 265.563 98.4842C265.682 98.2837 265.853 98.1186 266.057 98.0062C266.262 97.8938 266.492 97.8382 266.726 97.8451H267.405C267.77 97.8451 268.058 97.7016 268.005 97.245C267.99 97.1054 268.018 96.9646 268.084 96.8406C268.227 96.6319 268.384 96.345 268.593 96.3058C268.802 96.2667 269.024 96.4754 269.311 96.6189C268.789 97.1537 269.011 97.4537 269.468 97.6885C269.578 97.7412 269.673 97.8222 269.742 97.9233C269.862 98.2909 270.029 98.6416 270.238 98.9669C270.553 99.2195 270.906 99.4219 271.283 99.5669C270.974 99.8409 270.647 100.094 270.304 100.323C269.975 100.526 269.619 100.68 269.246 100.78C268.942 100.819 268.635 100.819 268.332 100.78V100.61L268.972 100.206C268.75 99.9321 268.41 99.6974 268.384 99.4365C268.358 99.1756 268.671 98.9147 268.854 98.6016Z" fill="white"/>
<path d="M261.006 92.6403C261.222 92.5357 261.445 92.4442 261.672 92.3664C262.364 92.1707 263.069 91.9881 263.774 91.8185C264.127 91.7403 264.506 91.7403 264.623 92.1055C264.741 92.4708 264.48 92.6403 264.297 92.7577C263.887 93.0259 263.449 93.249 262.991 93.423C262.787 93.5286 262.552 93.559 262.327 93.5089C262.103 93.4588 261.903 93.3314 261.763 93.1491C261.62 92.9665 261.319 92.9273 261.084 92.8099L261.006 92.6403Z" fill="white"/>
<path d="M240.91 102.385C241.464 101.591 242.247 100.986 243.156 100.65L242.699 101.054C242.907 101.145 243.103 101.184 243.195 101.302C243.286 101.419 243.717 101.837 243.665 102.006C243.621 102.186 243.51 102.341 243.354 102.441C243.199 102.541 243.011 102.577 242.829 102.541C242.215 102.437 241.589 102.437 240.91 102.385Z" fill="white"/>
<path d="M286.496 166.628L286.417 167.202C280.088 171.002 272.998 173.359 265.652 174.106C258.306 174.853 250.885 173.971 243.92 171.522C236.955 169.074 230.616 165.12 225.357 159.942C220.098 154.765 216.047 148.491 213.495 141.57C210.943 134.648 209.952 127.249 210.592 119.901C211.232 112.552 213.489 105.436 217.2 99.0589C220.911 92.6821 225.986 87.2022 232.061 83.0104C238.137 78.8186 245.064 76.0182 252.349 74.8091C248.8 77.7328 245.546 80.9964 242.633 84.5532C242.072 85.2445 241.484 85.975 240.936 86.7185C240.387 87.462 240.035 87.9186 239.63 88.5578C239.225 89.1969 238.977 89.51 238.664 89.9926C237.481 91.803 236.413 93.685 235.464 95.6278C233.663 99.2782 232.389 103.165 231.678 107.172C230.627 113.287 231.139 119.569 233.166 125.434C234.176 128.408 235.488 131.271 237.084 133.978C239.507 138.133 242.3 142.062 245.428 145.718C264.388 167.737 286.496 166.628 286.496 166.628Z" fill="url(#paint0_linear_1094_1396)"/>
<path d="M494.251 157.379C492.866 162.701 486.599 161.775 486.599 161.775C486.599 161.775 450.036 162.454 449.318 161.775C448.599 161.097 449.122 159.062 449.252 158.293L449.318 158.019H459.764C459.764 158.019 464.7 155.41 456.617 143.839C449.814 134.069 475.46 133.626 483.843 133.743C485.436 133.743 486.455 133.743 486.455 133.743C486.455 133.743 495.622 152.057 494.251 157.379Z" fill="#8CC5F9"/>
<path d="M489.902 153.649C488.596 158.958 482.211 157.966 482.211 157.966C482.211 157.966 459.033 158.423 449.213 158.24L449.278 157.966H459.725C459.725 157.966 464.661 155.357 456.578 143.787C449.775 134.017 475.421 133.574 483.804 133.691C486.416 139.313 490.908 149.827 489.902 153.649Z" fill="#8CC5F9"/>
<path d="M491.404 154.431C490.033 159.74 482.263 157.966 482.263 157.966C482.263 157.966 459.085 158.423 449.265 158.24L449.331 157.966H459.777C459.777 157.966 464.713 155.357 456.63 143.787C449.827 134.017 475.473 133.574 483.856 133.691C486.416 139.313 492.396 150.609 491.404 154.431Z" fill="url(#paint1_linear_1094_1396)"/>
<path d="M507.074 81.1355H428.882C424.821 81.1355 421.53 84.4235 421.53 88.4794V136.065C421.53 140.121 424.821 143.409 428.882 143.409H507.074C511.134 143.409 514.425 140.121 514.425 136.065V88.4794C514.425 84.4235 511.134 81.1355 507.074 81.1355Z" fill="#8CC5F9"/>
<path d="M507.074 81.1355H428.882C424.821 81.1355 421.53 84.4235 421.53 88.4794V136.065C421.53 140.121 424.821 143.409 428.882 143.409H507.074C511.134 143.409 514.425 140.121 514.425 136.065V88.4794C514.425 84.4235 511.134 81.1355 507.074 81.1355Z" fill="url(#paint2_linear_1094_1396)"/>
<path d="M505.102 81.1355H426.91C422.85 81.1355 419.558 84.4235 419.558 88.4794V136.065C419.558 140.121 422.85 143.409 426.91 143.409H505.102C509.162 143.409 512.454 140.121 512.454 136.065V88.4794C512.454 84.4235 509.162 81.1355 505.102 81.1355Z" fill="#8CC5F9"/>
<path d="M505.102 81.1355H426.91C422.85 81.1355 419.558 84.4235 419.558 88.4794V136.065C419.558 140.121 422.85 143.409 426.91 143.409H505.102C509.162 143.409 512.454 140.121 512.454 136.065V88.4794C512.454 84.4235 509.162 81.1355 505.102 81.1355Z" fill="url(#paint3_linear_1094_1396)"/>
<path d="M512.388 129.869L512.454 136.052C512.454 137.017 512.263 137.973 511.893 138.865C511.522 139.757 510.98 140.567 510.296 141.249C509.612 141.932 508.8 142.472 507.906 142.841C507.013 143.209 506.055 143.398 505.089 143.396H426.91C424.96 143.396 423.09 142.622 421.711 141.245C420.333 139.868 419.558 138 419.558 136.052V129.869H512.388Z" fill="#8CC5F9"/>
<path d="M485.737 158.266H449.278V161.723H485.737V158.266Z" fill="url(#paint4_linear_1094_1396)"/>
<path d="M491.404 154.431L491.743 160.627C490.87 161.209 489.886 161.606 488.853 161.794C487.82 161.982 486.76 161.958 485.737 161.723V158.253C485.737 158.253 490.908 159.74 491.404 154.431Z" fill="url(#paint5_linear_1094_1396)"/>
<path d="M56.6854 118.286C57.7431 122.316 62.5224 121.586 62.5224 121.586C62.5224 121.586 90.2579 122.095 90.7802 121.586C91.3025 121.077 90.9238 119.525 90.7802 118.977C90.7882 118.912 90.7882 118.846 90.7802 118.781H82.8539C82.8539 118.781 79.1193 116.838 85.2435 108.033C90.4668 100.624 70.9579 100.284 64.6117 100.376C63.3973 100.376 62.666 100.376 62.666 100.376C62.666 100.376 55.6799 114.255 56.6854 118.286Z" fill="#8CC5F9"/>
<path d="M59.9891 115.455C61.0207 119.486 65.813 118.742 65.813 118.742C65.813 118.742 83.3893 119.081 90.8194 118.938C90.8274 118.873 90.8274 118.807 90.8194 118.742H82.8539C82.8539 118.742 79.1193 116.799 85.2435 107.994C90.4668 100.585 70.9579 100.245 64.6117 100.337C62.6268 104.589 59.2317 112.559 59.9891 115.455Z" fill="#8CC5F9"/>
<path d="M58.853 116.12C59.8846 120.151 65.813 118.807 65.813 118.807C65.813 118.807 83.3893 119.147 90.8194 119.003C90.8274 118.938 90.8274 118.872 90.8194 118.807H82.8539C82.8539 118.807 79.1193 116.864 85.2435 108.059C90.4668 100.65 70.9579 100.311 64.6117 100.402C62.6268 104.589 58.0957 113.159 58.853 116.12Z" fill="url(#paint6_linear_1094_1396)"/>
<path d="M106.241 60.4993H46.9832C43.9037 60.4993 41.4074 62.993 41.4074 66.0692V102.124C41.4074 105.2 43.9037 107.693 46.9832 107.693H106.241C109.32 107.693 111.817 105.2 111.817 102.124V66.0692C111.817 62.993 109.32 60.4993 106.241 60.4993Z" fill="#8CC5F9"/>
<path d="M106.241 60.4993H46.9832C43.9037 60.4993 41.4074 62.993 41.4074 66.0692V102.124C41.4074 105.2 43.9037 107.693 46.9832 107.693H106.241C109.32 107.693 111.817 105.2 111.817 102.124V66.0692C111.817 62.993 109.32 60.4993 106.241 60.4993Z" fill="url(#paint7_linear_1094_1396)"/>
<path d="M107.73 60.4993H48.4718C45.3924 60.4993 42.896 62.993 42.896 66.0692V102.124C42.896 105.2 45.3924 107.693 48.4718 107.693H107.73C110.809 107.693 113.305 105.2 113.305 102.124V66.0692C113.305 62.993 110.809 60.4993 107.73 60.4993Z" fill="#8CC5F9"/>
<path d="M107.73 60.4993H48.4718C45.3924 60.4993 42.896 62.993 42.896 66.0692V102.124C42.896 105.2 45.3924 107.693 48.4718 107.693H107.73C110.809 107.693 113.305 105.2 113.305 102.124V66.0692C113.305 62.993 110.809 60.4993 107.73 60.4993Z" fill="url(#paint8_linear_1094_1396)"/>
<path d="M42.9352 97.4277V102.124C42.9352 103.601 43.5226 105.018 44.5683 106.062C45.614 107.107 47.0322 107.694 48.511 107.694H107.73C109.208 107.694 110.627 107.107 111.672 106.062C112.718 105.018 113.305 103.601 113.305 102.124V97.4277H42.9352Z" fill="#8CC5F9"/>
<path d="M63.1492 121.586H90.7802V118.964H63.1492V121.586Z" fill="url(#paint9_linear_1094_1396)"/>
<path d="M58.853 116.12L58.5919 120.816C59.2549 121.257 60.0009 121.559 60.7845 121.702C61.568 121.846 62.3726 121.829 63.1492 121.651V119.042C63.1492 119.042 59.2187 120.034 58.853 116.12Z" fill="url(#paint10_linear_1094_1396)"/>
<path d="M351.277 88.5706L315.145 83.1833C314.561 83.0966 314.023 82.8147 313.62 82.3835C313.217 81.9524 312.972 81.3974 312.925 80.8092L310.314 51.4726C310.275 51.0764 310.328 50.6765 310.467 50.3037C310.607 49.9309 310.831 49.5951 311.121 49.3219C311.411 49.0487 311.759 48.8453 312.14 48.7275C312.521 48.6097 312.923 48.5804 313.317 48.642L349.488 54.0424C350.079 54.1241 350.624 54.4055 351.033 54.8398C351.442 55.2741 351.689 55.8351 351.734 56.4295L354.28 85.7269C354.321 86.1242 354.27 86.5255 354.131 86.9C353.992 87.2745 353.769 87.6121 353.479 87.8868C353.189 88.1616 352.839 88.3661 352.458 88.4846C352.076 88.6032 351.672 88.6326 351.277 88.5706Z" fill="#8CC5F9"/>
<path d="M349.553 85.2314L316.908 80.3659C316.388 80.2939 315.907 80.0509 315.54 79.6754C315.174 79.2998 314.943 78.813 314.884 78.2919L312.429 52.8294C312.404 52.4796 312.459 52.1286 312.59 51.8032C312.721 51.4777 312.925 51.1864 313.185 50.9513C313.446 50.7162 313.756 50.5434 314.094 50.4462C314.431 50.349 314.786 50.3298 315.132 50.3901L347.777 55.2557C348.298 55.3255 348.781 55.5678 349.148 55.9438C349.515 56.3197 349.745 56.8077 349.801 57.3297L352.256 82.8052C352.282 83.1547 352.227 83.5053 352.096 83.8303C351.965 84.1554 351.761 84.4461 351.5 84.6803C351.239 84.9145 350.928 85.0859 350.591 85.1815C350.253 85.277 349.898 85.2941 349.553 85.2314Z" fill="url(#paint11_linear_1094_1396)"/>
<path d="M315.809 82.1554L362.948 89.1929C363.369 89.2558 363.748 89.4833 364.001 89.8253C364.255 90.1674 364.362 90.596 364.299 91.0168C364.236 91.4377 364.008 91.8163 363.666 92.0694C363.323 92.3225 362.894 92.4294 362.473 92.3665L315.334 85.3291C314.916 85.2667 314.54 85.041 314.289 84.7017C314.038 84.3625 313.932 83.9373 313.994 83.5199C314.022 83.3106 314.091 83.1088 314.198 82.9265C314.304 82.7441 314.446 82.5848 314.615 82.4578C314.784 82.3308 314.977 82.2386 315.182 82.1867C315.387 82.1348 315.6 82.1242 315.809 82.1554Z" fill="#8CC5F9"/>
<path d="M374.353 90.8812L336.448 85.2223C335.656 85.1041 334.919 85.6494 334.8 86.4403L334.752 86.7628C334.634 87.5537 335.18 88.2907 335.971 88.4089L373.876 94.0678C374.668 94.186 375.405 93.6406 375.524 92.8498L375.572 92.5272C375.69 91.7363 375.144 90.9994 374.353 90.8812Z" fill="#8CC5F9"/>
<path d="M374.353 90.8812L336.448 85.2223C335.656 85.1041 334.919 85.6494 334.8 86.4403L334.752 86.7628C334.634 87.5537 335.18 88.2907 335.971 88.4089L373.876 94.0678C374.668 94.186 375.405 93.6406 375.524 92.8498L375.572 92.5272C375.69 91.7363 375.144 90.9994 374.353 90.8812Z" fill="url(#paint12_linear_1094_1396)"/>
<path d="M164.062 137.252L132.488 149.187C131.98 149.384 131.42 149.401 130.9 149.238C130.381 149.074 129.932 148.739 129.628 148.287L114.285 125.786C114.077 125.483 113.941 125.136 113.888 124.772C113.834 124.409 113.863 124.038 113.974 123.687C114.085 123.337 114.273 123.016 114.526 122.749C114.779 122.482 115.09 122.276 115.434 122.147L147.009 110.198C147.523 110.009 148.086 109.995 148.608 110.161C149.131 110.326 149.583 110.66 149.894 111.111L165.185 133.586C165.394 133.89 165.531 134.237 165.586 134.601C165.642 134.965 165.615 135.337 165.507 135.689C165.399 136.041 165.213 136.365 164.963 136.635C164.713 136.906 164.405 137.116 164.062 137.252Z" fill="#8CC5F9"/>
<path d="M161.137 135.334L132.645 146.122C132.189 146.317 131.679 146.349 131.203 146.211C130.727 146.073 130.313 145.774 130.033 145.365L116.596 125.929C116.414 125.66 116.297 125.353 116.253 125.031C116.209 124.709 116.24 124.382 116.344 124.074C116.448 123.766 116.621 123.486 116.85 123.256C117.08 123.026 117.359 122.851 117.667 122.747L146.16 111.959C146.617 111.771 147.124 111.743 147.598 111.881C148.073 112.018 148.486 112.313 148.771 112.716L162.26 132.152C162.439 132.425 162.552 132.736 162.591 133.059C162.63 133.383 162.594 133.712 162.485 134.02C162.376 134.327 162.198 134.606 161.965 134.834C161.731 135.062 161.448 135.233 161.137 135.334Z" fill="url(#paint13_linear_1094_1396)"/>
<path d="M132.547 148.064L173.723 132.481C174.092 132.341 174.502 132.353 174.862 132.515C175.222 132.677 175.502 132.976 175.642 133.344C175.782 133.713 175.77 134.122 175.607 134.482C175.445 134.842 175.147 135.122 174.778 135.262L133.602 150.845C133.419 150.92 133.224 150.957 133.027 150.955C132.83 150.953 132.635 150.912 132.454 150.833C132.273 150.755 132.11 150.641 131.974 150.498C131.838 150.356 131.732 150.187 131.662 150.003C131.588 149.818 131.553 149.62 131.557 149.421C131.562 149.222 131.607 149.026 131.69 148.845C131.773 148.664 131.891 148.501 132.038 148.367C132.186 148.233 132.359 148.13 132.547 148.064Z" fill="#8CC5F9"/>
<path d="M183.686 128.704L150.582 141.232C149.887 141.495 149.538 142.271 149.801 142.965L149.903 143.233C150.166 143.927 150.942 144.277 151.637 144.014L184.741 131.485C185.436 131.222 185.786 130.446 185.523 129.752L185.421 129.484C185.158 128.79 184.381 128.441 183.686 128.704Z" fill="#8CC5F9"/>
<path d="M183.686 128.704L150.582 141.232C149.887 141.495 149.538 142.271 149.801 142.965L149.903 143.233C150.166 143.927 150.942 144.277 151.637 144.014L184.741 131.485C185.436 131.222 185.786 130.446 185.523 129.752L185.421 129.484C185.158 128.79 184.381 128.441 183.686 128.704Z" fill="url(#paint14_linear_1094_1396)"/>
<path d="M194.225 151.432L163.023 154.362C158.335 154.802 154.891 158.956 155.332 163.639L162.755 242.523C163.195 247.206 167.354 250.646 172.042 250.206L203.244 247.276C207.933 246.836 211.377 242.682 210.936 237.999L203.513 159.115C203.072 154.432 198.914 150.992 194.225 151.432Z" fill="#8CC5F9"/>
<path d="M194.225 151.432L163.023 154.362C158.335 154.802 154.891 158.956 155.332 163.639L162.755 242.523C163.195 247.206 167.354 250.646 172.042 250.206L203.244 247.276C207.933 246.836 211.377 242.682 210.936 237.999L203.513 159.115C203.072 154.432 198.914 150.992 194.225 151.432Z" fill="url(#paint15_linear_1094_1396)"/>
<path d="M194.308 151.329L162.924 154.276C158.286 154.712 154.879 158.821 155.315 163.454L162.563 240.48C162.999 245.114 167.113 248.517 171.751 248.081L203.135 245.134C207.774 244.699 211.18 240.59 210.744 235.956L203.496 158.93C203.06 154.297 198.947 150.894 194.308 151.329Z" fill="#8CC5F9"/>
<path d="M193.069 153.618L164.818 156.27C160.654 156.662 157.595 160.351 157.987 164.511L164.493 233.654C164.884 237.814 168.578 240.869 172.742 240.478L200.993 237.826C205.158 237.435 208.216 233.745 207.825 229.585L201.318 160.442C200.927 156.282 197.234 153.227 193.069 153.618Z" fill="white"/>
<path d="M240.831 62.443C240.005 62.4582 239.195 62.2166 238.513 61.7515C237.83 61.2863 237.31 60.6208 237.023 59.847C236.736 59.0731 236.697 58.2293 236.911 57.4324C237.126 56.6355 237.583 55.9249 238.22 55.3991C244.331 50.3248 259.531 43.5418 273.385 54.0946C273.828 54.4026 274.203 54.797 274.489 55.2538C274.775 55.7107 274.965 56.2206 275.049 56.7529C275.132 57.2852 275.107 57.8289 274.974 58.3511C274.841 58.8734 274.604 59.3634 274.277 59.7916C273.95 60.2199 273.539 60.5775 273.07 60.843C272.6 61.1085 272.082 61.2763 271.546 61.3363C271.01 61.3964 270.468 61.3474 269.951 61.1923C269.434 61.0373 268.955 60.7794 268.541 60.4342C256.318 51.1075 243.848 61.0994 243.312 61.5299C242.612 62.1058 241.738 62.4277 240.831 62.443Z" fill="#8CC5F9"/>
<path d="M231.364 49.5944C230.84 49.5992 230.321 49.4989 229.836 49.2995C229.352 49.1001 228.912 48.8056 228.544 48.4335C227.801 47.6859 227.385 46.6755 227.385 45.6224C227.385 44.5694 227.801 43.559 228.544 42.8114C228.779 42.5897 251.8 19.9448 281.259 40.9982C282.125 41.6123 282.711 42.5448 282.889 43.5906C283.066 44.6364 282.821 45.7098 282.206 46.5747C281.902 47.0029 281.516 47.3671 281.07 47.6464C280.625 47.9257 280.129 48.1146 279.611 48.2025C278.564 48.3798 277.489 48.1345 276.624 47.5204C252.779 30.4976 234.955 47.7291 234.211 48.4726C233.836 48.8409 233.391 49.13 232.902 49.3227C232.413 49.5154 231.89 49.6078 231.364 49.5944Z" fill="#8CC5F9"/>
<path d="M290.988 34.6455C290.144 34.6432 289.323 34.3788 288.637 33.889C253.171 8.02216 222.994 32.6498 221.727 33.7194C220.913 34.3668 219.878 34.6713 218.842 34.5681C217.807 34.4649 216.852 33.9622 216.182 33.1669C215.512 32.3717 215.179 31.3465 215.253 30.3096C215.328 29.2727 215.805 28.3059 216.582 27.6147C216.935 27.3147 252.714 -2.17847 293.351 27.4451C294.026 27.944 294.527 28.6427 294.782 29.442C295.037 30.2413 295.033 31.1006 294.772 31.8977C294.51 32.6948 294.004 33.3894 293.324 33.8826C292.645 34.3759 291.827 34.6428 290.988 34.6455Z" fill="#8CC5F9"/>
</g>
<defs>
<linearGradient id="paint0_linear_1094_1396" x1="267.222" y1="116.146" x2="185.15" y2="201.269" gradientUnits="userSpaceOnUse">
<stop stop-opacity="0"/>
<stop offset="0.99"/>
</linearGradient>
<linearGradient id="paint1_linear_1094_1396" x1="15818" y1="4666.08" x2="15692.4" y2="4035.79" gradientUnits="userSpaceOnUse">
<stop stop-opacity="0"/>
<stop offset="0.99"/>
</linearGradient>
<linearGradient id="paint2_linear_1094_1396" x1="40085.2" y1="5283.46" x2="29424.5" y2="5868.66" gradientUnits="userSpaceOnUse">
<stop stop-opacity="0"/>
<stop offset="0.99"/>
</linearGradient>
<linearGradient id="paint3_linear_1094_1396" x1="460.991" y1="70.5044" x2="475.951" y2="195.433" gradientUnits="userSpaceOnUse">
<stop offset="0.02" stop-color="white" stop-opacity="0"/>
<stop offset="0.32" stop-color="white" stop-opacity="0.39"/>
<stop offset="0.68" stop-color="white" stop-opacity="0.68"/>
<stop offset="1" stop-color="white"/>
</linearGradient>
<linearGradient id="paint4_linear_1094_1396" x1="13459.4" y1="580.753" x2="13530.9" y2="862.549" gradientUnits="userSpaceOnUse">
<stop stop-opacity="0"/>
<stop offset="0.99"/>
</linearGradient>
<linearGradient id="paint5_linear_1094_1396" x1="2765.19" y1="1521.82" x2="2673.12" y2="1476.23" gradientUnits="userSpaceOnUse">
<stop stop-opacity="0"/>
<stop offset="0.99"/>
</linearGradient>
<linearGradient id="paint6_linear_1094_1396" x1="28491.8" y1="2955.83" x2="28563.9" y2="2593.79" gradientUnits="userSpaceOnUse">
<stop stop-opacity="0"/>
<stop offset="0.99"/>
</linearGradient>
<linearGradient id="paint7_linear_1094_1396" x1="60585.1" y1="5719.55" x2="66709.7" y2="6055.14" gradientUnits="userSpaceOnUse">
<stop stop-opacity="0"/>
<stop offset="0.99"/>
</linearGradient>
<linearGradient id="paint8_linear_1094_1396" x1="64529.3" y1="4664.29" x2="64251.9" y2="8117.04" gradientUnits="userSpaceOnUse">
<stop offset="0.02" stop-color="white" stop-opacity="0"/>
<stop offset="0.32" stop-color="white" stop-opacity="0.39"/>
<stop offset="0.68" stop-color="white" stop-opacity="0.68"/>
<stop offset="1" stop-color="white"/>
</linearGradient>
<linearGradient id="paint9_linear_1094_1396" x1="24504.9" y1="514.465" x2="24463.7" y2="676.493" gradientUnits="userSpaceOnUse">
<stop stop-opacity="0"/>
<stop offset="0.99"/>
</linearGradient>
<linearGradient id="paint10_linear_1094_1396" x1="2969.3" y1="978.749" x2="3022.25" y2="952.554" gradientUnits="userSpaceOnUse">
<stop stop-opacity="0"/>
<stop offset="0.99"/>
</linearGradient>
<linearGradient id="paint11_linear_1094_1396" x1="3637.83" y1="594.138" x2="3576.6" y2="4470.91" gradientUnits="userSpaceOnUse">
<stop stop-opacity="0"/>
<stop offset="0.99"/>
</linearGradient>
<linearGradient id="paint12_linear_1094_1396" x1="4755.45" y1="969.039" x2="4740.13" y2="1072.38" gradientUnits="userSpaceOnUse">
<stop stop-opacity="0"/>
<stop offset="0.99"/>
</linearGradient>
<linearGradient id="paint13_linear_1094_1396" x1="23947.7" y1="5096.01" x2="25560" y2="8265.8" gradientUnits="userSpaceOnUse">
<stop stop-opacity="0"/>
<stop offset="0.99"/>
</linearGradient>
<linearGradient id="paint14_linear_1094_1396" x1="16998.6" y1="-5272.39" x2="17030.3" y2="-5189.07" gradientUnits="userSpaceOnUse">
<stop stop-opacity="0"/>
<stop offset="0.99"/>
</linearGradient>
<linearGradient id="paint15_linear_1094_1396" x1="14244.7" y1="29104.3" x2="14612.7" y2="32388.3" gradientUnits="userSpaceOnUse">
<stop stop-opacity="0"/>
<stop offset="0.99"/>
</linearGradient>
<clipPath id="clip0_1094_1396">
<rect width="546" height="281" fill="white"/>
</clipPath>
</defs>
</svg>
