<svg width="58" height="58" viewBox="0 0 58 58" fill="none" xmlns="http://www.w3.org/2000/svg">
<g clip-path="url(#clip0_6861_913)">
<path d="M45.8381 35.9288C44.6507 34.6925 43.2184 34.0314 41.7005 34.0314C40.1949 34.0314 38.7504 34.6802 37.514 35.9166L33.6458 39.7726C33.3275 39.6012 33.0092 39.4421 32.7032 39.2829C32.2625 39.0626 31.8463 38.8545 31.4913 38.6342C27.8679 36.3328 24.575 33.3337 21.4167 29.4532C19.8865 27.5191 18.8583 25.891 18.1115 24.2384C19.1153 23.3203 20.0457 22.3655 20.9515 21.4474C21.2943 21.1046 21.637 20.7496 21.9798 20.4069C24.5505 17.8362 24.5505 14.5066 21.9798 11.9359L18.6379 8.59401C18.2584 8.21453 17.8667 7.82281 17.4995 7.43109C16.765 6.67213 15.9938 5.88868 15.1981 5.15421C14.0107 3.97904 12.5907 3.35474 11.0973 3.35474C9.60385 3.35474 8.15938 3.97904 6.93525 5.15421C6.92301 5.16645 6.92301 5.16645 6.91077 5.17869L2.74872 9.37746C1.18184 10.9443 0.288224 12.854 0.0923633 15.0697C-0.201428 18.6441 0.851324 21.9737 1.65925 24.1527C3.64234 29.5021 6.60473 34.4599 11.0238 39.7726C16.3855 46.1748 22.8367 51.2304 30.2059 54.7927C33.0215 56.127 36.7795 57.7061 40.9783 57.9754C41.2354 57.9876 41.5047 57.9999 41.7495 57.9999C44.5772 57.9999 46.952 56.9839 48.8127 54.9641C48.825 54.9396 48.8494 54.9273 48.8617 54.9028C49.4982 54.1316 50.2327 53.4339 51.0039 52.6872C51.5303 52.1853 52.0689 51.6589 52.5953 51.108C53.8072 49.8472 54.4437 48.3782 54.4437 46.8726C54.4437 45.3546 53.7949 43.8979 52.5586 42.6738L45.8381 35.9288ZM50.2205 48.8189C50.2082 48.8189 50.2082 48.8312 50.2205 48.8189C49.7431 49.333 49.2534 49.7982 48.727 50.3124C47.9313 51.0713 47.1234 51.867 46.3645 52.7606C45.1281 54.0827 43.6714 54.707 41.7617 54.707C41.5781 54.707 41.3823 54.707 41.1986 54.6947C37.563 54.4622 34.1844 53.0422 31.6504 51.8303C24.7219 48.4762 18.6379 43.7143 13.5823 37.6793C9.40799 32.6482 6.61697 27.9965 4.76854 23.002C3.6301 19.9539 3.21389 17.5791 3.39751 15.339C3.51993 13.9067 4.07078 12.7193 5.08681 11.7033L9.26109 7.52902C9.86092 6.96592 10.4975 6.65989 11.1218 6.65989C11.893 6.65989 12.5173 7.12506 12.909 7.51678C12.9212 7.52902 12.9335 7.54126 12.9457 7.5535C13.6924 8.25126 14.4024 8.97349 15.1492 9.74469C15.5286 10.1364 15.9204 10.5281 16.3121 10.9321L19.654 14.274C20.9515 15.5716 20.9515 16.7712 19.654 18.0688C19.299 18.4238 18.9562 18.7788 18.6012 19.1215C17.5729 20.1743 16.5936 21.1536 15.5286 22.1084C15.5042 22.1329 15.4797 22.1451 15.4674 22.1696C14.4147 23.2224 14.6105 24.2506 14.8309 24.9484C14.8431 24.9851 14.8554 25.0218 14.8676 25.0586C15.7367 27.1641 16.9609 29.1472 18.8215 31.5097L18.8338 31.522C22.2124 35.684 25.7746 38.9279 29.7041 41.4129C30.206 41.7312 30.7201 41.9883 31.2097 42.2331C31.6504 42.4534 32.0666 42.6615 32.4216 42.8819C32.4706 42.9064 32.5196 42.9431 32.5685 42.9676C32.9847 43.1757 33.3764 43.2736 33.7804 43.2736C34.7964 43.2736 35.433 42.6371 35.6411 42.429L39.8276 38.2424C40.2438 37.8262 40.9048 37.3243 41.676 37.3243C42.435 37.3243 43.0593 37.8017 43.4388 38.218C43.451 38.2302 43.451 38.2302 43.4633 38.2424L50.2082 44.9874C51.4691 46.236 51.4691 47.5213 50.2205 48.8189Z" fill="black"/>
<path d="M31.3442 13.7966C34.5514 14.3352 37.4648 15.8532 39.7907 18.179C42.1165 20.5048 43.6222 23.4183 44.173 26.6255C44.3077 27.4334 45.0055 27.9965 45.8011 27.9965C45.8991 27.9965 45.9848 27.9843 46.0827 27.972C46.9885 27.8251 47.5884 26.9683 47.4415 26.0624C46.7804 22.1819 44.9442 18.6442 42.141 15.8409C39.3377 13.0377 35.8 11.2015 31.9195 10.5404C31.0137 10.3935 30.169 10.9934 30.0099 11.887C29.8507 12.7806 30.4383 13.6497 31.3442 13.7966Z" fill="#DDD0A4"/>
<path d="M57.9325 25.585C56.843 19.1951 53.8316 13.3804 49.2044 8.75324C44.5772 4.12603 38.7626 1.11467 32.3726 0.0251944C31.479 -0.133942 30.6344 0.478122 30.4752 1.37174C30.3283 2.27759 30.9282 3.12224 31.834 3.28138C37.5385 4.24844 42.741 6.95377 46.8786 11.0791C51.0161 15.2166 53.7092 20.4192 54.6763 26.1236C54.8109 26.9316 55.5087 27.4947 56.3044 27.4947C56.4023 27.4947 56.488 27.4824 56.5859 27.4702C57.4795 27.3355 58.0916 26.4786 57.9325 25.585Z" fill="#DDD0A4"/>
</g>
<defs>
<clipPath id="clip0_6861_913">
<rect width="58" height="58" fill="white"/>
</clipPath>
</defs>
</svg>
