<svg width="132" height="224" viewBox="0 0 132 224" fill="none" xmlns="http://www.w3.org/2000/svg">
<path opacity="0.4" fill-rule="evenodd" clip-rule="evenodd" d="M0 73.8535V42.9871L2.31543 42.4444C8.38855 41.021 14.2696 39.0767 19.9608 36.6112C25.7497 34.0482 31.1486 31.0637 36.1617 27.66C41.1713 24.1613 45.751 20.2411 49.9043 15.899L49.916 15.8868L49.9278 15.8748C54.1589 11.5496 57.7179 6.91001 60.6155 1.95605L61.4843 0.470703H131.391V224H46.1426V73.8535H0ZM49.1426 70.8535V221H128.391V3.4707H63.2051C60.1777 8.64648 56.4668 13.4805 52.0723 17.9727C47.7754 22.4648 43.0391 26.5176 37.8633 30.1309C32.6875 33.6465 27.1211 36.7227 21.1641 39.3594C15.3047 41.8984 9.25 43.9004 3 45.3652V70.8535H49.1426Z" fill="#828282"/>
</svg>
