<svg width="194" height="229" viewBox="0 0 194 229" fill="none" xmlns="http://www.w3.org/2000/svg">
<path opacity="0.4" fill-rule="evenodd" clip-rule="evenodd" d="M7.80338 198.392L58.3082 152.967C68.0167 144.23 75.9339 136.356 82.0827 129.343L82.0903 129.334L82.098 129.325C88.3606 122.292 93.2149 115.854 96.7038 110.008L96.7129 109.992L96.7221 109.977C100.327 104.096 102.724 98.7515 103.997 93.933L104.001 93.9146L104.007 93.8963C105.407 88.8532 106.094 84.0458 106.094 79.4648C106.094 73.8038 105.26 68.7338 103.635 64.2212C102.016 59.7228 99.6558 55.9583 96.5727 52.8752L96.5424 52.8449L96.513 52.8138C93.5279 49.6532 89.8178 47.2094 85.3237 45.5016L85.3142 45.498L85.3047 45.4943C80.9317 43.7987 75.794 42.9141 69.8366 42.9141C61.5613 42.9141 53.3562 44.5856 45.2024 47.9595C37.0012 51.3531 29.3532 56.0236 22.2544 61.9866L19.6392 64.1834L0 33.4972L1.9431 31.797C6.81676 27.5325 12.6588 23.5112 19.4409 19.7207C26.355 15.8133 34.0405 12.423 42.486 9.5407C50.9525 6.55356 59.9962 4.22047 69.6117 2.53527L69.6168 2.53437C79.3687 0.842731 89.5506 0 100.159 0C114.732 0 127.766 1.63508 139.225 4.95229C150.626 8.25231 160.34 12.8344 168.299 18.7513C176.344 24.6595 182.478 31.6938 186.618 39.8639C190.844 48.0117 192.954 56.7834 192.954 66.1348C192.954 75.393 190.842 84.6492 186.683 93.8808C182.518 103.125 176.211 112.228 167.838 121.201C159.551 130.186 149.12 139.016 136.584 147.702C127.545 153.966 117.399 160.087 106.152 166.069L134.608 163.77H193.686V227.191H11.2902L7.80338 228.354V227.191H4.14667L7.80338 223.535V198.392ZM190.686 224.191V166.77H134.729L91.2233 170.285C93.6807 169.092 96.0917 167.894 98.456 166.691C112.159 159.717 124.298 152.565 134.876 145.236C147.278 136.643 157.532 127.951 165.637 119.162C173.84 110.373 179.944 101.535 183.948 92.6484C187.952 83.7617 189.954 74.9238 189.954 66.1348C189.954 57.248 187.952 48.9473 183.948 41.2324C180.042 33.5176 174.231 26.8281 166.516 21.1641C158.899 15.5 149.524 11.0566 138.391 7.83398C127.258 4.61133 114.514 3 100.159 3C89.7096 3 79.6999 3.83008 70.1295 5.49023C60.6569 7.15039 51.7702 9.44531 43.4694 12.375C35.1686 15.207 27.6491 18.5273 20.9108 22.3359C14.2702 26.0469 8.60611 29.9531 3.91861 34.0547L20.3249 59.6895C21.0989 59.0393 21.8795 58.4038 22.6666 57.7831C29.3275 52.5301 36.4571 48.3316 44.0553 45.1875C52.5514 41.6719 61.1452 39.9141 69.8366 39.9141C76.0866 39.9141 81.6042 40.8418 86.3893 42.6973C91.2721 44.5527 95.3737 47.2383 98.694 50.7539C102.112 54.1719 104.7 58.3223 106.458 63.2051C108.215 68.0879 109.094 73.5078 109.094 79.4648C109.094 84.3477 108.362 89.4258 106.897 94.6992C105.53 99.875 102.991 105.49 99.2799 111.545C95.6667 117.6 90.6862 124.191 84.3385 131.32C78.0885 138.449 70.0807 146.408 60.3151 155.197L10.8034 199.729V224.191L11.6823 223.898L11.3893 224.191H190.686Z" fill="#828282"/>
</svg>
