<svg width="196" height="228" viewBox="0 0 196 228" fill="none" xmlns="http://www.w3.org/2000/svg">
<path opacity="0.4" fill-rule="evenodd" clip-rule="evenodd" d="M19.7329 171.21L21.9754 171.995C23.8887 172.664 26.4871 173.531 29.7797 174.596C33.0407 175.555 36.7415 176.564 40.8849 177.624C45.001 178.581 49.3143 179.444 53.8253 180.212C58.362 180.872 62.8444 181.201 67.2734 181.201C74.1372 181.201 80.148 180.309 85.3459 178.579C90.6184 176.727 94.9626 174.307 98.441 171.364C101.957 168.389 104.56 165.059 106.313 161.378L106.319 161.365L106.326 161.351C108.189 157.536 109.098 153.687 109.098 149.777C109.098 145.226 107.967 141.007 105.691 137.069C103.422 133.141 100.122 129.769 95.6988 126.971L95.6869 126.963L95.6751 126.956C91.3657 124.173 86.0213 122.093 79.5675 120.784L79.5426 120.779L79.5178 120.773C73.2553 119.392 66.1174 119.096 58.0678 119.948L54.7519 120.299V97.0337L103.557 59.3622L81.2654 60.4922H14.4687V0H187.168V35.6963L121.024 85.5752C131.034 86.4219 140.115 88.2664 148.247 91.136C158.596 94.7533 167.343 99.6138 174.418 105.765C181.464 111.892 186.813 119.026 190.42 127.16C194.116 135.276 195.957 143.949 195.957 153.146C195.957 164.27 193.4 174.493 188.255 183.754L188.252 183.76L188.248 183.766C183.131 192.874 175.983 200.669 166.864 207.154L166.858 207.158C157.839 213.542 147.063 218.46 134.586 221.953L134.575 221.956L134.565 221.959C122.064 225.359 108.368 227.045 93.4941 227.045C84.9611 227.045 76.5708 226.45 68.3247 225.258C60.1951 224.167 52.3056 222.58 44.6579 220.494C37.014 218.409 29.6608 215.876 22.5999 212.892L22.5928 212.889L22.5858 212.886C15.6248 209.903 9.14462 206.565 3.14991 202.868L0.557129 201.269L19.7329 171.21ZM68.7382 222.287C76.8437 223.459 85.0957 224.045 93.4941 224.045C108.143 224.045 121.57 222.385 133.777 219.064C145.984 215.646 156.434 210.861 165.125 204.709C173.914 198.459 180.75 190.988 185.633 182.297C190.516 173.508 192.957 163.791 192.957 153.146C192.957 144.357 191.199 136.105 187.684 128.391C184.266 120.676 179.187 113.889 172.449 108.029C165.711 102.17 157.312 97.4824 147.254 93.9668C138.504 90.8784 128.547 88.9959 117.385 88.3191C115.841 88.2254 114.274 88.1549 112.684 88.1074L184.168 34.2012V3H17.4687V57.4922H81.1894L112.977 55.8809L57.7519 98.5078V116.965C58.7643 116.858 59.7643 116.768 60.7519 116.696C67.8626 116.175 74.3333 116.558 80.164 117.844C86.9023 119.211 92.6152 121.408 97.3027 124.436C102.088 127.463 105.75 131.174 108.289 135.568C110.828 139.963 112.098 144.699 112.098 149.777C112.098 154.172 111.072 158.469 109.021 162.668C107.068 166.77 104.187 170.432 100.379 173.654C96.5703 176.877 91.8828 179.465 86.3164 181.418C80.75 183.273 74.4023 184.201 67.2734 184.201C62.6836 184.201 58.0449 183.859 53.3574 183.176C48.7675 182.395 44.373 181.516 40.1738 180.539C35.9746 179.465 32.2148 178.439 28.8945 177.463C25.5742 176.389 22.9375 175.51 20.9843 174.826L4.72457 200.314C5.57179 200.837 6.42921 201.352 7.29684 201.86C12.4298 204.867 17.92 207.623 23.7675 210.129C30.7011 213.059 37.9277 215.549 45.4472 217.6C52.9668 219.65 60.7304 221.213 68.7382 222.287Z" fill="#828282"/>
</svg>
