<svg width="21" height="15" viewBox="0 0 21 15" fill="none" xmlns="http://www.w3.org/2000/svg">
<path d="M19.6958 6.34853H20.7828V8.52244H19.6958V6.34853ZM2.48568 7.43548L1.86294 8.32637L0.549219 7.40806L1.88842 6.52732L2.48568 7.43548ZM7.33665 1.18652L7.71605 0.167927L9.75323 0.926723L9.37384 1.94532L7.33665 1.18652ZM9.30952 12.7846L9.82993 13.7389L7.92138 14.7797L7.40097 13.8255L9.30952 12.7846ZM19.6958 8.52244H2.48568V6.34853H19.6958V8.52244ZM9.37384 1.94532C9.05804 2.79316 8.46689 3.61013 7.8343 4.32571C7.19066 5.05378 6.44547 5.74177 5.7501 6.3291C5.05227 6.91849 4.389 7.41958 3.90087 7.77302C3.65629 7.95011 3.4544 8.09105 3.31251 8.18848C3.24154 8.23721 3.18549 8.27512 3.14653 8.30127C3.12705 8.31435 3.11183 8.3245 3.10114 8.3316C3.0958 8.33515 3.09159 8.33793 3.08854 8.33995C3.08702 8.34095 3.08579 8.34177 3.08485 8.34238C3.08439 8.34269 3.08399 8.34295 3.08367 8.34316C3.08351 8.34327 3.08333 8.34339 3.08325 8.34344C3.08309 8.34355 3.08294 8.34364 2.48568 7.43548C1.88842 6.52732 1.88832 6.52739 1.88822 6.52745C1.88822 6.52746 1.88815 6.5275 1.88813 6.52751C1.88811 6.52753 1.88816 6.52749 1.88829 6.52741C1.88853 6.52725 1.88907 6.52689 1.8899 6.52635C1.89155 6.52525 1.89435 6.5234 1.89827 6.5208C1.9061 6.51559 1.9184 6.5074 1.93489 6.49633C1.96787 6.47419 2.0176 6.44057 2.08195 6.39638C2.21072 6.30796 2.39769 6.17747 2.62594 6.01221C3.08346 5.68093 3.70172 5.21363 4.34737 4.6683C4.99548 4.1209 5.65573 3.50784 6.20557 2.88586C6.76645 2.2514 7.15681 1.66934 7.33665 1.18652L9.37384 1.94532ZM2.48568 7.43548C3.10842 6.5446 3.10855 6.54469 3.10871 6.5448C3.10878 6.54485 3.10895 6.54497 3.10909 6.54507C3.10939 6.54528 3.10975 6.54553 3.11017 6.54582C3.11101 6.54642 3.11212 6.54719 3.11349 6.54815C3.11622 6.55007 3.11998 6.55272 3.12475 6.55608C3.13429 6.56281 3.14786 6.57242 3.16523 6.5848C3.19997 6.60955 3.24998 6.64543 3.3135 6.69164C3.4405 6.78404 3.62179 6.91795 3.84342 7.08714C4.28602 7.42503 4.89289 7.90621 5.55121 8.48061C6.8394 9.60458 8.43307 11.1775 9.30952 12.7846L7.40097 13.8255C6.72043 12.5776 5.37932 11.2157 4.12198 10.1187C3.50753 9.58254 2.93895 9.13164 2.52428 8.81509C2.31728 8.65706 2.14949 8.53315 2.03456 8.44954C1.97712 8.40775 1.93295 8.37607 1.90376 8.35527C1.88917 8.34488 1.87832 8.3372 1.87145 8.33235C1.86801 8.32993 1.86557 8.32821 1.86414 8.32721C1.86343 8.3267 1.86297 8.32638 1.86277 8.32624C1.86267 8.32617 1.86263 8.32615 1.86266 8.32617C1.86268 8.32618 1.86275 8.32623 1.86275 8.32623C1.86284 8.32629 1.86294 8.32637 2.48568 7.43548Z" fill="#1E1E1E"/>
</svg>
