<svg width="190" height="61" viewBox="0 0 190 61" fill="none" xmlns="http://www.w3.org/2000/svg">
<path d="M6.14354 49.974C6.4982 50.03 6.8202 50.1747 7.10954 50.408C7.4082 50.6413 7.64154 50.9307 7.80954 51.276C7.98687 51.6213 8.07554 51.99 8.07554 52.382C8.07554 52.8767 7.94954 53.3247 7.69753 53.726C7.44554 54.118 7.07687 54.4307 6.59154 54.664C6.11554 54.888 5.55087 55 4.89754 55H1.25754V45.242H4.75754C5.4202 45.242 5.98487 45.354 6.45154 45.578C6.9182 45.7927 7.2682 46.0867 7.50153 46.46C7.73487 46.8333 7.85154 47.2533 7.85154 47.72C7.85154 48.2987 7.69287 48.7793 7.37553 49.162C7.06754 49.5353 6.65687 49.806 6.14354 49.974ZM2.53154 49.456H4.67354C5.27087 49.456 5.73287 49.316 6.05954 49.036C6.3862 48.756 6.54954 48.3687 6.54954 47.874C6.54954 47.3793 6.3862 46.992 6.05954 46.712C5.73287 46.432 5.26154 46.292 4.64553 46.292H2.53154V49.456ZM4.78554 53.95C5.4202 53.95 5.91487 53.8007 6.26954 53.502C6.6242 53.2033 6.80154 52.788 6.80154 52.256C6.80154 51.7147 6.61487 51.29 6.24154 50.982C5.8682 50.6647 5.36887 50.506 4.74353 50.506H2.53154V53.95H4.78554ZM14.1275 46.278V49.54H17.6835V50.59H14.1275V53.95H18.1035V55H12.8535V45.228H18.1035V46.278H14.1275ZM24.3152 53.964H27.7312V55H23.0412V45.242H24.3152V53.964ZM33.3682 45.242V55H32.0942V45.242H33.3682ZM39.8235 46.278V49.54H43.3795V50.59H39.8235V53.95H43.7995V55H38.5495V45.228H43.7995V46.278H39.8235ZM56.8012 45.242L53.1192 55H51.6492L47.9672 45.242H49.3252L52.3912 53.656L55.4572 45.242H56.8012ZM62.4822 46.278V49.54H66.0382V50.59H62.4822V53.95H66.4582V55H61.2082V45.228H66.4582V46.278H62.4822ZM79.4123 45.242V55H78.1383V45.242H79.4123ZM92.2656 55H90.9916L85.8676 47.23V55H84.5936V45.228H85.8676L90.9916 52.984V45.228H92.2656V55ZM111.022 45.242L107.844 51.318V55H106.57V51.318L103.378 45.242H104.792L107.2 50.184L109.608 45.242H111.022ZM119.8 55.098C118.894 55.098 118.068 54.888 117.322 54.468C116.575 54.0387 115.982 53.446 115.544 52.69C115.114 51.9247 114.9 51.066 114.9 50.114C114.9 49.162 115.114 48.308 115.544 47.552C115.982 46.7867 116.575 46.194 117.322 45.774C118.068 45.3447 118.894 45.13 119.8 45.13C120.714 45.13 121.545 45.3447 122.292 45.774C123.038 46.194 123.626 46.782 124.056 47.538C124.485 48.294 124.7 49.1527 124.7 50.114C124.7 51.0753 124.485 51.934 124.056 52.69C123.626 53.446 123.038 54.0387 122.292 54.468C121.545 54.888 120.714 55.098 119.8 55.098ZM119.8 53.992C120.481 53.992 121.092 53.8333 121.634 53.516C122.184 53.1987 122.614 52.746 122.922 52.158C123.239 51.57 123.398 50.8887 123.398 50.114C123.398 49.33 123.239 48.6487 122.922 48.07C122.614 47.482 122.189 47.0293 121.648 46.712C121.106 46.3947 120.49 46.236 119.8 46.236C119.109 46.236 118.493 46.3947 117.952 46.712C117.41 47.0293 116.981 47.482 116.664 48.07C116.356 48.6487 116.202 49.33 116.202 50.114C116.202 50.8887 116.356 51.57 116.664 52.158C116.981 52.746 117.41 53.1987 117.952 53.516C118.502 53.8333 119.118 53.992 119.8 53.992ZM130.637 45.242V51.416C130.637 52.284 130.847 52.928 131.267 53.348C131.697 53.768 132.289 53.978 133.045 53.978C133.792 53.978 134.375 53.768 134.795 53.348C135.225 52.928 135.439 52.284 135.439 51.416V45.242H136.713V51.402C136.713 52.214 136.55 52.9 136.223 53.46C135.897 54.0107 135.453 54.4213 134.893 54.692C134.343 54.9627 133.722 55.098 133.031 55.098C132.341 55.098 131.715 54.9627 131.155 54.692C130.605 54.4213 130.166 54.0107 129.839 53.46C129.522 52.9 129.363 52.214 129.363 51.402V45.242H130.637ZM146.987 55L144.663 51.01H143.123V55H141.849V45.242H144.999C145.736 45.242 146.357 45.368 146.861 45.62C147.374 45.872 147.757 46.2127 148.009 46.642C148.261 47.0713 148.387 47.5613 148.387 48.112C148.387 48.784 148.191 49.3767 147.799 49.89C147.416 50.4033 146.837 50.744 146.063 50.912L148.513 55H146.987ZM143.123 49.988H144.999C145.689 49.988 146.207 49.82 146.553 49.484C146.898 49.1387 147.071 48.6813 147.071 48.112C147.071 47.5333 146.898 47.0853 146.553 46.768C146.217 46.4507 145.699 46.292 144.999 46.292H143.123V49.988ZM156.47 55.098C155.826 55.098 155.248 54.986 154.734 54.762C154.23 54.5287 153.834 54.2113 153.544 53.81C153.255 53.3993 153.106 52.928 153.096 52.396H154.454C154.501 52.8533 154.688 53.2407 155.014 53.558C155.35 53.866 155.836 54.02 156.47 54.02C157.077 54.02 157.553 53.8707 157.898 53.572C158.253 53.264 158.43 52.872 158.43 52.396C158.43 52.0227 158.328 51.7193 158.122 51.486C157.917 51.2527 157.66 51.0753 157.352 50.954C157.044 50.8327 156.629 50.702 156.106 50.562C155.462 50.394 154.944 50.226 154.552 50.058C154.17 49.89 153.838 49.6287 153.558 49.274C153.288 48.91 153.152 48.4247 153.152 47.818C153.152 47.286 153.288 46.8147 153.558 46.404C153.829 45.9933 154.207 45.676 154.692 45.452C155.187 45.228 155.752 45.116 156.386 45.116C157.301 45.116 158.048 45.3447 158.626 45.802C159.214 46.2593 159.546 46.866 159.62 47.622H158.22C158.174 47.2487 157.978 46.922 157.632 46.642C157.287 46.3527 156.83 46.208 156.26 46.208C155.728 46.208 155.294 46.348 154.958 46.628C154.622 46.8987 154.454 47.2813 154.454 47.776C154.454 48.1307 154.552 48.42 154.748 48.644C154.954 48.868 155.201 49.0407 155.49 49.162C155.789 49.274 156.204 49.4047 156.736 49.554C157.38 49.7313 157.898 49.9087 158.29 50.086C158.682 50.254 159.018 50.52 159.298 50.884C159.578 51.2387 159.718 51.724 159.718 52.34C159.718 52.816 159.592 53.264 159.34 53.684C159.088 54.104 158.715 54.4447 158.22 54.706C157.726 54.9673 157.142 55.098 156.47 55.098ZM165.877 46.278V49.54H169.433V50.59H165.877V53.95H169.853V55H164.603V45.228H169.853V46.278H165.877ZM176.065 53.964H179.481V55H174.791V45.242H176.065V53.964ZM189.36 45.242V46.278H185.118V49.568H188.562V50.604H185.118V55H183.844V45.242H189.36Z" fill="#F2F2F2"></path>
<path d="M37.008 14.728L30.42 40H22.968L18.936 23.368L14.76 40H7.308L0.9 14.728H7.488L11.124 33.124L15.624 14.728H22.392L26.712 33.124L30.384 14.728H37.008ZM52.0473 40.252C49.6713 40.252 47.4873 39.7 45.4953 38.596C43.5273 37.492 41.9553 35.956 40.7793 33.988C39.6273 31.996 39.0513 29.764 39.0513 27.292C39.0513 24.82 39.6273 22.6 40.7793 20.632C41.9553 18.664 43.5273 17.128 45.4953 16.024C47.4873 14.92 49.6713 14.368 52.0473 14.368C54.4233 14.368 56.5953 14.92 58.5633 16.024C60.5553 17.128 62.1153 18.664 63.2433 20.632C64.3953 22.6 64.9713 24.82 64.9713 27.292C64.9713 29.764 64.3953 31.996 63.2433 33.988C62.0913 35.956 60.5313 37.492 58.5633 38.596C56.5953 39.7 54.4233 40.252 52.0473 40.252ZM52.0473 34.636C54.0633 34.636 55.6713 33.964 56.8713 32.62C58.0953 31.276 58.7073 29.5 58.7073 27.292C58.7073 25.06 58.0953 23.284 56.8713 21.964C55.6713 20.62 54.0633 19.948 52.0473 19.948C50.0073 19.948 48.3753 20.608 47.1513 21.928C45.9513 23.248 45.3513 25.036 45.3513 27.292C45.3513 29.524 45.9513 31.312 47.1513 32.656C48.3753 33.976 50.0073 34.636 52.0473 34.636ZM81.2841 40L76.0281 30.46H74.5521V40H68.3961V14.728H78.7281C80.7201 14.728 82.4121 15.076 83.8041 15.772C85.2201 16.468 86.2761 17.428 86.9721 18.652C87.6681 19.852 88.0161 21.196 88.0161 22.684C88.0161 24.364 87.5361 25.864 86.5761 27.184C85.6401 28.504 84.2481 29.44 82.4001 29.992L88.2321 40H81.2841ZM74.5521 26.104H78.3681C79.4961 26.104 80.3361 25.828 80.8881 25.276C81.4641 24.724 81.7521 23.944 81.7521 22.936C81.7521 21.976 81.4641 21.22 80.8881 20.668C80.3361 20.116 79.4961 19.84 78.3681 19.84H74.5521V26.104ZM106.532 40L98.0364 28.84V40H91.8804V14.728H98.0364V25.816L106.46 14.728H113.696L103.904 27.112L114.056 40H106.532Z" fill="#F2F2F2"></path>
<path d="M128.934 40.252C126.558 40.252 124.374 39.7 122.382 38.596C120.414 37.492 118.842 35.956 117.666 33.988C116.514 31.996 115.938 29.764 115.938 27.292C115.938 24.82 116.514 22.6 117.666 20.632C118.842 18.664 120.414 17.128 122.382 16.024C124.374 14.92 126.558 14.368 128.934 14.368C131.31 14.368 133.482 14.92 135.45 16.024C137.442 17.128 139.002 18.664 140.13 20.632C141.282 22.6 141.858 24.82 141.858 27.292C141.858 29.764 141.282 31.996 140.13 33.988C138.978 35.956 137.418 37.492 135.45 38.596C133.482 39.7 131.31 40.252 128.934 40.252ZM128.934 34.636C130.95 34.636 132.558 33.964 133.758 32.62C134.982 31.276 135.594 29.5 135.594 27.292C135.594 25.06 134.982 23.284 133.758 21.964C132.558 20.62 130.95 19.948 128.934 19.948C126.894 19.948 125.262 20.608 124.038 21.928C122.838 23.248 122.238 25.036 122.238 27.292C122.238 29.524 122.838 31.312 124.038 32.656C125.262 33.976 126.894 34.636 128.934 34.636ZM151.331 14.728V29.848C151.331 31.36 151.703 32.524 152.447 33.34C153.191 34.156 154.283 34.564 155.723 34.564C157.163 34.564 158.267 34.156 159.035 33.34C159.803 32.524 160.187 31.36 160.187 29.848V14.728H166.343V29.812C166.343 32.068 165.863 33.976 164.903 35.536C163.943 37.096 162.647 38.272 161.015 39.064C159.407 39.856 157.607 40.252 155.615 40.252C153.623 40.252 151.835 39.868 150.251 39.1C148.691 38.308 147.455 37.132 146.543 35.572C145.631 33.988 145.175 32.068 145.175 29.812V14.728H151.331ZM188.846 14.728V19.66H182.15V40H175.994V19.66H169.298V14.728H188.846Z" fill="#F2F2F2"></path>
<path d="M128.934 40.252C126.558 40.252 124.374 39.7 122.382 38.596C120.414 37.492 118.842 35.956 117.666 33.988C116.514 31.996 115.938 29.764 115.938 27.292C115.938 24.82 116.514 22.6 117.666 20.632C118.842 18.664 120.414 17.128 122.382 16.024C124.374 14.92 126.558 14.368 128.934 14.368C131.31 14.368 133.482 14.92 135.45 16.024C137.442 17.128 139.002 18.664 140.13 20.632C141.282 22.6 141.858 24.82 141.858 27.292C141.858 29.764 141.282 31.996 140.13 33.988C138.978 35.956 137.418 37.492 135.45 38.596C133.482 39.7 131.31 40.252 128.934 40.252ZM128.934 34.636C130.95 34.636 132.558 33.964 133.758 32.62C134.982 31.276 135.594 29.5 135.594 27.292C135.594 25.06 134.982 23.284 133.758 21.964C132.558 20.62 130.95 19.948 128.934 19.948C126.894 19.948 125.262 20.608 124.038 21.928C122.838 23.248 122.238 25.036 122.238 27.292C122.238 29.524 122.838 31.312 124.038 32.656C125.262 33.976 126.894 34.636 128.934 34.636ZM151.331 14.728V29.848C151.331 31.36 151.703 32.524 152.447 33.34C153.191 34.156 154.283 34.564 155.723 34.564C157.163 34.564 158.267 34.156 159.035 33.34C159.803 32.524 160.187 31.36 160.187 29.848V14.728H166.343V29.812C166.343 32.068 165.863 33.976 164.903 35.536C163.943 37.096 162.647 38.272 161.015 39.064C159.407 39.856 157.607 40.252 155.615 40.252C153.623 40.252 151.835 39.868 150.251 39.1C148.691 38.308 147.455 37.132 146.543 35.572C145.631 33.988 145.175 32.068 145.175 29.812V14.728H151.331ZM188.846 14.728V19.66H182.15V40H175.994V19.66H169.298V14.728H188.846Z" fill="#F24B88"></path>
</svg>
