<svg width="21" height="21" viewBox="0 0 21 21" fill="none" xmlns="http://www.w3.org/2000/svg">
<path d="M20.1146 10.3714C20.1146 9.60224 19.4911 8.97872 18.722 8.97872H11.7587V2.01543C11.7587 1.24629 11.1352 0.622772 10.366 0.622772C9.5969 0.622772 8.97338 1.24629 8.97338 2.01543V8.97872H2.01009C1.24095 8.97872 0.617432 9.60224 0.617432 10.3714C0.617432 11.1405 1.24095 11.764 2.01009 11.764H8.97338V18.7273C8.97338 19.4965 9.5969 20.12 10.366 20.12C11.1352 20.12 11.7587 19.4965 11.7587 18.7273V11.764H18.722C19.4911 11.764 20.1146 11.1405 20.1146 10.3714Z" fill="white"/>
</svg>
