<svg width="17" height="16" viewBox="0 0 17 16" fill="none" xmlns="http://www.w3.org/2000/svg">
<path d="M13.0104 9.64297C12.813 9.83373 12.7223 10.1096 12.7673 10.3802L13.4448 14.1194C13.5019 14.4363 13.3678 14.757 13.1018 14.9402C12.8412 15.1302 12.4944 15.153 12.2102 15.001L8.83486 13.2454C8.7175 13.1831 8.58718 13.1496 8.45381 13.1458H8.24728C8.17565 13.1565 8.10553 13.1793 8.04152 13.2142L4.66543 14.9782C4.49853 15.0618 4.30953 15.0914 4.12434 15.0618C3.67318 14.9767 3.37215 14.548 3.44607 14.0958L4.12434 10.3566C4.1693 10.0838 4.07861 9.80637 3.88123 9.61257L1.1293 6.95255C0.899144 6.72986 0.819124 6.39546 0.924293 6.09374C1.02641 5.79278 1.28705 5.57314 1.6018 5.52374L5.38942 4.97577C5.67749 4.94613 5.93051 4.77133 6.06006 4.51293L7.72906 1.1005C7.76869 1.0245 7.81975 0.954581 7.88148 0.8953L7.95007 0.8421C7.98588 0.80258 8.02704 0.769899 8.07276 0.743299L8.15583 0.712899L8.28539 0.659698H8.60623C8.89278 0.689339 9.14503 0.86034 9.27688 1.1157L10.968 4.51293C11.0899 4.76145 11.3269 4.93397 11.6005 4.97577L15.3881 5.52374C15.7082 5.56934 15.9757 5.78974 16.0816 6.09374C16.1815 6.3985 16.0954 6.7329 15.8606 6.95255L13.0104 9.64297Z" fill="#F6B76F"/>
</svg>
