<svg width="11" height="11" viewBox="0 0 11 11" fill="none" xmlns="http://www.w3.org/2000/svg">
<path d="M0.464871 9.50128C0.169327 9.7915 0.169327 10.262 0.464871 10.5523C0.760415 10.8425 1.23959 10.8425 1.53513 10.5523L0.464871 9.50128ZM10.9492 1C10.9492 0.589573 10.6104 0.256853 10.1924 0.256853H3.38131C2.96334 0.256853 2.62452 0.589573 2.62452 1C2.62452 1.41044 2.96334 1.74316 3.38131 1.74316H9.4356V7.68836C9.4356 8.09879 9.77443 8.43151 10.1924 8.43151C10.6104 8.43151 10.9492 8.09879 10.9492 7.68836V1ZM1.53513 10.5523L10.7275 1.52549L9.65726 0.474517L0.464871 9.50128L1.53513 10.5523Z" fill="#F2F2F2"/>
</svg>
