<svg width="35" height="40" viewBox="0 0 35 40" fill="none" xmlns="http://www.w3.org/2000/svg">
<path d="M7.77778 20.219L3.88889 16.319L0 20.219L3.88889 24.119L7.77778 20.219ZM28.6028 11.8535L17.5 0.718994H15.5556V15.5195L6.63056 6.56899L3.88889 9.31849L14.7583 20.219L3.88889 31.1195L6.63056 33.869L15.5556 24.9185V39.719H17.5L28.6028 28.5845L20.2417 20.219L28.6028 11.8535ZM19.4444 8.18749L23.1 11.8535L19.4444 15.5195V8.18749ZM23.1 28.5845L19.4444 32.2505V24.9185L23.1 28.5845ZM31.1111 16.319L27.2222 20.219L31.1111 24.119L35 20.219L31.1111 16.319Z" fill="#8CC5F9"/>
</svg>
