<svg width="70" height="70" viewBox="0 0 70 70" fill="none" xmlns="http://www.w3.org/2000/svg">
<g filter="url(#filter0_d_7_575)">
<circle cx="34.7999" cy="21.7999" r="16.7999" fill="#8CC5F9"/>
</g>
<path d="M40.05 21.8C40.05 23.1924 39.4969 24.5277 38.5123 25.5123C37.5277 26.4969 36.1924 27.05 34.8 27.05C33.4076 27.05 32.0722 26.4969 31.0877 25.5123C30.1031 24.5277 29.55 23.1924 29.55 21.8C29.55 21.5007 29.5815 21.2085 29.6357 20.925H27.8V27.9197C27.8 28.4062 28.1937 28.8 28.6802 28.8H40.9215C41.1546 28.7995 41.3781 28.7066 41.5428 28.5416C41.7075 28.3765 41.8 28.1529 41.8 27.9197V20.925H39.9642C40.0185 21.2085 40.05 21.5007 40.05 21.8ZM34.8 25.3C35.2597 25.2999 35.7149 25.2092 36.1396 25.0332C36.5643 24.8571 36.9502 24.5992 37.2752 24.274C37.6002 23.9488 37.858 23.5628 38.0338 23.138C38.2097 22.7133 38.3001 22.258 38.3 21.7982C38.2999 21.3385 38.2092 20.8833 38.0332 20.4586C37.8571 20.0339 37.5992 19.648 37.274 19.323C36.9488 18.998 36.5628 18.7402 36.138 18.5644C35.7132 18.3886 35.258 18.2981 34.7982 18.2982C33.8697 18.2985 32.9794 18.6675 32.323 19.3242C31.6666 19.981 31.298 20.8715 31.2982 21.8C31.2985 22.7285 31.6675 23.6189 32.3242 24.2752C32.9809 24.9316 33.8715 25.3002 34.8 25.3ZM39 18.125H41.0982C41.2376 18.125 41.3713 18.0697 41.4701 17.9713C41.5688 17.8729 41.6245 17.7394 41.625 17.6V15.5017C41.625 15.362 41.5695 15.2281 41.4707 15.1293C41.3719 15.0305 41.2379 14.975 41.0982 14.975H39C38.8603 14.975 38.7263 15.0305 38.6275 15.1293C38.5287 15.2281 38.4732 15.362 38.4732 15.5017V17.6C38.475 17.8887 38.7112 18.125 39 18.125ZM34.8 5C30.3444 5 26.0712 6.76999 22.9206 9.9206C19.77 13.0712 18 17.3444 18 21.8C18 26.2556 19.77 30.5288 22.9206 33.6794C26.0712 36.83 30.3444 38.6 34.8 38.6C37.0062 38.6 39.1908 38.1654 41.2291 37.3212C43.2673 36.4769 45.1194 35.2394 46.6794 33.6794C48.2394 32.1194 49.4769 30.2673 50.3212 28.2291C51.1654 26.1908 51.6 24.0062 51.6 21.8C51.6 19.5938 51.1654 17.4092 50.3212 15.3709C49.4769 13.3326 48.2394 11.4806 46.6794 9.9206C45.1194 8.36058 43.2673 7.1231 41.2291 6.27882C39.1908 5.43454 37.0062 5 34.8 5ZM43.55 28.6057C43.55 29.675 42.675 30.55 41.6057 30.55H27.9942C26.925 30.55 26.05 29.675 26.05 28.6057V14.9942C26.05 13.925 26.925 13.05 27.9942 13.05H41.6057C42.675 13.05 43.55 13.925 43.55 14.9942V28.6057Z" fill="white"/>
<defs>
<filter id="filter0_d_7_575" x="0" y="0" width="69.6001" height="69.5999" filterUnits="userSpaceOnUse" color-interpolation-filters="sRGB">
<feFlood flood-opacity="0" result="BackgroundImageFix"/>
<feColorMatrix in="SourceAlpha" type="matrix" values="0 0 0 0 0 0 0 0 0 0 0 0 0 0 0 0 0 0 127 0" result="hardAlpha"/>
<feOffset dy="13"/>
<feGaussianBlur stdDeviation="9"/>
<feColorMatrix type="matrix" values="0 0 0 0 0.0658854 0 0 0 0 0.0730469 0 0 0 0 0.1375 0 0 0 0.08 0"/>
<feBlend mode="normal" in2="BackgroundImageFix" result="effect1_dropShadow_7_575"/>
<feBlend mode="normal" in="SourceGraphic" in2="effect1_dropShadow_7_575" result="shape"/>
</filter>
</defs>
</svg>
