<svg width="34" height="34" viewBox="0 0 34 34" fill="none" xmlns="http://www.w3.org/2000/svg">
<path d="M16.9999 2.83337C9.17992 2.83337 2.83325 9.18004 2.83325 17C2.83325 24.82 9.17992 31.1667 16.9999 31.1667C24.8199 31.1667 31.1666 24.82 31.1666 17C31.1666 9.18004 24.8199 2.83337 16.9999 2.83337ZM16.9999 7.08337C19.3516 7.08337 21.2499 8.98171 21.2499 11.3334C21.2499 13.685 19.3516 15.5834 16.9999 15.5834C14.6483 15.5834 12.7499 13.685 12.7499 11.3334C12.7499 8.98171 14.6483 7.08337 16.9999 7.08337ZM16.9999 27.2C13.4583 27.2 10.3274 25.3867 8.49992 22.6384C8.54242 19.8192 14.1666 18.275 16.9999 18.275C19.8191 18.275 25.4574 19.8192 25.4999 22.6384C23.6724 25.3867 20.5416 27.2 16.9999 27.2Z" fill="#0D1C41"/>
</svg>
