<svg width="69" height="69" viewBox="0 0 69 69" fill="none" xmlns="http://www.w3.org/2000/svg">
<g clip-path="url(#clip0_6861_398)">
<path d="M60.0878 11.9954L59.7075 5.57015C59.6396 4.51059 58.7566 3.69554 57.6835 3.76346C56.6239 3.83138 55.8224 4.72793 55.8768 5.78749L55.9854 7.67568C50.4431 3.53253 43.719 1.27757 36.6553 1.27757C28.0158 1.27757 19.8925 4.64643 13.7933 10.7457C13.0461 11.4928 13.0461 12.7018 13.7933 13.4625C14.8256 14.4949 16.1297 13.8429 16.5101 13.4625C21.8894 8.0832 29.0482 5.10829 36.6689 5.10829C42.7274 5.10829 48.487 6.98289 53.2958 10.4604L51.6385 10.5691C50.579 10.637 49.7775 11.5336 49.8318 12.5931C49.8862 13.6119 50.742 14.3998 51.7472 14.3998C51.788 14.3998 58.2812 14.0195 58.2812 14.0195C59.3407 13.9515 60.1422 13.055 60.0878 11.9954Z" fill="#0D1C41"/>
<path d="M29.279 61.1427C15.6134 57.4886 6.94673 44.4342 8.30514 30.7958L9.21528 32.1678C9.58205 32.7247 10.7503 33.3904 11.8642 32.7112C12.7607 32.1542 12.9917 30.9452 12.4075 30.0623L8.87568 24.6829C8.59041 24.2618 8.15572 23.963 7.66669 23.8543C7.16408 23.7592 6.64788 23.8543 6.22678 24.126L0.861057 27.6579C-0.0219096 28.242 -0.266423 29.4238 0.317693 30.3068C0.901809 31.1897 2.08363 31.4342 2.96659 30.8501L4.55593 29.8042C2.69491 45.5074 12.5977 60.6401 28.2874 64.8375C28.4504 64.8783 30.1484 65.0821 30.6374 63.4791C30.9498 62.4739 30.3114 61.4144 29.279 61.1427Z" fill="#0D1C41"/>
<path d="M67.8986 25.24C67.6269 24.2212 66.5674 23.6099 65.5486 23.8815C64.5298 24.1532 63.9185 25.2128 64.1901 26.2316C67.8443 39.8972 60.8892 53.9432 48.3918 59.5806L49.1254 58.0999C49.6008 57.149 49.2205 56.0079 48.2696 55.5325C47.3187 55.057 46.164 55.4374 45.7022 56.3883L42.8224 62.1344C42.3469 63.0852 42.7273 64.2263 43.6782 64.7018L49.4242 67.5816C49.6959 67.7174 51.2309 68.057 51.9916 66.7258C52.5214 65.8021 52.0867 64.6338 51.1358 64.1584L49.4106 63.289C63.9456 57.0675 72.0961 40.9432 67.8986 25.24Z" fill="#0D1C41"/>
<path d="M27.8117 40.4948L31.262 36.8951C32.6069 35.4959 34.7803 33.5126 34.7803 30.6192C34.7803 28.8125 33.3947 24.778 28.5724 24.778C24.9047 24.778 22.4595 27.6035 21.563 28.9891L24.9726 31.0131C26.0457 29.3015 27.1868 28.4457 28.3822 28.4457C30.7051 28.4457 30.6236 30.0487 30.6236 30.6871C30.6236 32.3716 28.6131 34.2597 27.4857 35.4144L21.889 41.1469V44.312H35.3509V40.4948H27.8117Z" fill="#0D1C41"/>
<path d="M49.5871 36.0529V32.7248H45.4983V36.0529H42.795L49.261 25.2128H44.6289L37.8232 36.4876V39.7342H45.4983V44.2984H49.5871V39.7342H51.7469V36.0529H49.5871Z" fill="#0D1C41"/>
<path d="M56.3931 22.754C55.741 22.754 55.1569 23.0121 54.6407 23.5419V20.4991H52.9155V29.0299H54.6407V25.6882C54.6407 25.1992 54.763 24.2211 55.9312 24.2211C56.624 24.2211 56.9772 24.6966 56.9772 25.6474V29.0299H58.7024V25.2807C58.7024 24.0581 57.9416 22.754 56.3931 22.754Z" fill="#0D1C41"/>
</g>
<defs>
<clipPath id="clip0_6861_398">
<rect width="69" height="69" fill="white"/>
</clipPath>
</defs>
</svg>
