<svg width="592" height="607" viewBox="0 0 592 607" fill="none" xmlns="http://www.w3.org/2000/svg">
<g clip-path="url(#clip0_6861_835)">
<path opacity="0.8" d="M295.553 37.782C336.737 2.07414 474.303 42.1165 510.892 77.3896C556.308 121.205 568.967 168.65 547.295 232.17C529.163 285.15 400.559 345.81 362.714 386.394C283.536 471.332 192.845 456.565 97.9551 381.53C58.7913 344.868 27.8551 244.183 217.42 134.738C263.941 110.343 259.625 68.9269 295.553 37.782Z" fill="#A89060"/>
<path d="M326 593.152C491.335 593.152 625.366 585.327 625.366 575.674C625.366 566.021 491.335 558.196 326 558.196C160.665 558.196 26.6338 566.021 26.6338 575.674C26.6338 585.327 160.665 593.152 326 593.152Z" fill="#F5F5F5"/>
<path d="M239.644 112.428C241.188 105.928 257.338 99.7519 271.234 109.34C277.394 113.511 282.014 119.589 284.385 126.641C286.756 133.692 286.747 141.327 284.358 148.372C276.901 170.452 315.825 169.633 324.842 206.859C331.96 236.195 325.367 277.744 285.64 275.49C225.007 272.047 230.241 212.788 227.585 181.646C224.929 150.503 191.842 115.578 239.644 112.428Z" fill="#263238"/>
<path d="M219.618 195.573C219.356 200.081 218.831 204.203 218.244 208.48C217.657 212.757 216.839 216.941 215.928 221.141C215.017 225.341 213.983 229.541 212.67 233.678C211.403 237.878 209.897 242.002 208.162 246.03L206.803 249.118C206.602 249.566 206.232 250.246 205.954 250.817C205.676 251.388 205.305 251.913 204.981 252.469C203.711 254.449 202.297 256.332 200.751 258.105C197.874 261.397 194.779 264.492 191.487 267.368C185.104 273.01 178.313 278.171 171.168 282.809L167.061 277.312C169.963 274.502 172.928 271.599 175.784 268.696C178.641 265.794 181.466 262.845 184.153 259.849C186.8 256.945 189.299 253.91 191.641 250.755C192.712 249.278 193.681 247.73 194.544 246.123C194.714 245.768 194.93 245.397 195.069 245.058C195.208 244.718 195.362 244.44 195.532 243.931L196.582 241.213C199.231 233.752 201.296 226.097 202.758 218.316C203.545 214.394 204.117 210.41 204.703 206.442C205.29 202.474 205.738 198.383 206.077 194.615L219.618 195.573Z" fill="#FFB573"/>
<path d="M210.354 179.361C204.873 180.75 201.09 203.323 201.09 203.323L222.073 217.59C222.073 217.59 230.704 190.832 226.474 184.795C222.027 178.496 218.352 177.322 210.354 179.361Z" fill="#4A607A"/>
<path opacity="0.2" d="M210.848 184.394L206.633 207.153L215.125 212.912L210.848 184.394Z" fill="black"/>
<path d="M169.562 275.428L155.435 277.682L163.494 286.607C163.494 286.607 171.816 284.708 173.283 279.381L169.562 275.428Z" fill="#FFB573"/>
<path d="M148.749 279.458L156.808 288.182L163.494 286.607L155.434 277.683L148.749 279.458Z" fill="#FFB573"/>
<path d="M240.03 559.246H226.721L225.825 528.428H239.134L240.03 559.246Z" fill="#FFB573"/>
<path d="M280.11 559.902L266.8 559.893L262.547 529.074L275.856 529.082L280.11 559.902Z" fill="#FFB573"/>
<path d="M265.359 557.302L280.136 555.108C280.392 555.065 280.655 555.116 280.876 555.252C281.096 555.389 281.259 555.601 281.335 555.849L284.771 567.265C284.839 567.553 284.848 567.852 284.795 568.143C284.743 568.435 284.631 568.712 284.466 568.958C284.301 569.204 284.087 569.413 283.837 569.572C283.588 569.731 283.308 569.837 283.015 569.883C277.852 570.556 275.322 570.622 268.817 571.596C264.819 572.195 254.567 575.641 249.041 576.465C243.515 577.29 242.414 571.868 244.6 571.011C251.778 568.42 258.193 564.07 263.257 558.36C263.818 557.78 264.558 557.407 265.359 557.302Z" fill="#263238"/>
<path d="M226.258 557.718H241.219C241.474 557.712 241.722 557.8 241.915 557.965C242.109 558.13 242.235 558.361 242.269 558.614L243.983 570.456C244.013 570.754 243.981 571.055 243.887 571.34C243.794 571.625 243.642 571.887 243.441 572.11C243.241 572.332 242.996 572.51 242.722 572.632C242.448 572.754 242.152 572.818 241.852 572.818C236.634 572.726 234.132 572.417 227.539 572.417C223.494 572.417 215.187 572.834 209.552 572.834C203.916 572.834 203.669 567.322 205.985 566.812C216.423 564.573 220.53 561.485 224.034 558.536C224.655 558.009 225.443 557.719 226.258 557.718Z" fill="#263238"/>
<g opacity="0.2">
<path opacity="0.2" d="M225.841 528.443L226.289 544.331H239.598L239.15 528.443H225.841Z" fill="black"/>
<path opacity="0.2" d="M274.128 528.371L260.881 529.796L264.787 545.364L278.02 543.935L274.128 528.371Z" fill="black"/>
</g>
<path d="M210.355 179.361C210.355 179.361 204.009 181.584 216.716 259.649H270.756C269.845 237.647 269.829 224.137 280.344 178.944C272.776 177.357 265.103 176.325 257.385 175.856C249.217 175.268 241.018 175.268 232.851 175.856C222.305 176.952 210.355 179.361 210.355 179.361Z" fill="#4A607A"/>
<path opacity="0.2" d="M275.882 196.839C270.987 198.058 266.464 203.401 267.004 213.236C267.308 217.697 268.872 221.98 271.512 225.588C272.377 218.022 273.828 209.237 276.144 197.997L275.882 196.839Z" fill="black"/>
<path d="M235.691 197.533C235.691 197.533 242.717 201.872 244.554 208.341C252.181 202.752 262.542 187.204 262.958 177.894C262.96 177.623 262.909 177.354 262.807 177.103C262.704 176.852 262.553 176.624 262.362 176.432C262.172 176.239 261.945 176.087 261.694 175.983C261.444 175.878 261.176 175.825 260.905 175.825C259.729 175.795 258.553 175.846 257.385 175.979L235.691 197.533Z" fill="#FAFAFA"/>
<path d="M235.691 197.533C235.691 197.533 228.666 201.872 226.829 208.341C218.63 202.335 223.185 182.51 227.879 175.918C229.531 175.743 231.198 175.743 232.85 175.918L235.691 197.533Z" fill="#FAFAFA"/>
<path d="M254.976 148.311C253.432 156.201 251.888 170.668 257.4 175.948C252.279 185 244.777 192.476 235.707 197.564C224.76 188.825 232.866 175.948 232.866 175.948C241.667 173.849 241.435 167.302 239.907 161.172L254.976 148.311Z" fill="#FFB573"/>
<path opacity="0.2" d="M248.8 153.56L239.875 161.172C240.261 162.597 240.514 164.055 240.632 165.526C243.998 165.032 249.294 162.176 250.02 158.517C250.344 156.787 249.109 154.379 248.8 153.56Z" fill="black"/>
<path d="M268.193 135.619C264.549 148.311 263.267 153.761 255.3 158.934C243.319 166.654 228.527 159.428 228.311 145.902C228.11 133.72 234.116 115.022 247.858 112.691C250.884 112.162 253.995 112.417 256.894 113.43C259.794 114.444 262.386 116.182 264.424 118.48C266.462 120.778 267.878 123.559 268.538 126.559C269.198 129.559 269.079 132.678 268.193 135.619Z" fill="#FFB573"/>
<path d="M240.787 113.818C241.389 118.11 264.888 131.914 269.351 124.719C273.813 117.524 267.39 112.104 257.385 110.73C251.662 109.832 245.804 110.921 240.787 113.818Z" fill="#263238"/>
<path d="M256.103 116.149C253.216 119.947 259.33 147.307 268.085 144.729C276.839 142.15 276.438 133.396 270.354 125.321C266.912 120.595 261.83 117.325 256.103 116.149Z" fill="#263238"/>
<path d="M216.715 259.68C216.715 259.68 206.216 362.232 207.112 402.762C208.023 444.975 223.494 541.259 223.494 541.259H241.481C241.481 541.259 238.64 447.445 240.231 405.989C241.96 360.796 256.319 259.68 256.319 259.68H216.715Z" fill="#DDD0A4"/>
<path d="M271.419 258.784C271.419 258.784 281.918 361.337 281.023 401.867C280.112 444.08 280.081 540.363 280.081 540.363H262.094C262.094 540.363 251.888 447.152 247.904 405.094C243.552 359.144 231.816 258.784 231.816 258.784H271.419Z" fill="#DDD0A4"/>
<path d="M243.01 541.892H221.903L220.359 535.16L243.998 534.342L243.01 541.892Z" fill="#263238"/>
<path opacity="0.2" d="M239.804 288.291C226.526 314.987 237.133 363.7 241.827 381.827C244.236 354.606 248.296 321.333 251.461 296.906C249.439 283.072 245.919 275.97 239.804 288.291Z" fill="black"/>
<path d="M281.782 542.852L259.269 542.831L256.874 535.761L283.362 534.59L281.782 542.852Z" fill="#263238"/>
<path d="M81.4458 124.085C67.9996 135.986 58.3842 151.606 53.8157 168.972C49.2472 186.337 49.9308 204.667 55.7799 221.644C61.6291 238.621 72.3811 253.482 86.6763 264.348C100.972 275.214 118.168 281.597 136.091 282.689C154.014 283.782 171.858 279.535 187.368 270.486C202.877 261.437 215.355 247.992 223.223 231.852C231.091 215.711 233.996 197.6 231.571 179.808C229.145 162.017 221.499 145.344 209.598 131.898C193.637 113.872 171.171 102.923 147.139 101.458C123.108 99.9927 99.4778 108.132 81.4458 124.085ZM192.259 249.304C180.94 259.318 166.906 265.751 151.931 267.79C136.956 269.828 121.713 267.38 108.13 260.756C94.5463 254.131 83.2322 243.627 75.6182 230.573C68.0042 217.518 64.4324 202.498 65.3544 187.414C66.2765 172.329 71.6509 157.856 80.7981 145.826C89.9453 133.796 102.454 124.748 116.744 119.827C131.033 114.906 146.461 114.333 161.076 118.18C175.691 122.027 188.837 130.122 198.852 141.44C205.501 148.955 210.606 157.707 213.873 167.195C217.14 176.683 218.507 186.721 217.895 196.737C217.283 206.753 214.704 216.551 210.305 225.57C205.906 234.59 199.774 242.654 192.259 249.304Z" fill="#263238"/>
<path opacity="0.3" d="M137.354 261.98C123.524 261.148 110.252 256.233 99.2167 247.856C88.1811 239.48 79.878 228.018 75.3576 214.922C70.8372 201.825 70.3027 187.682 73.8217 174.282C77.3408 160.882 84.7553 148.826 95.1271 139.64C105.499 130.455 118.362 124.552 132.09 122.678C145.817 120.805 159.792 123.045 172.246 129.115C184.7 135.185 195.074 144.813 202.055 156.78C209.036 168.747 212.312 182.516 211.466 196.345C210.329 214.872 201.886 232.19 187.99 244.496C174.094 256.803 155.883 263.091 137.354 261.98Z" fill="#4A607A"/>
<g opacity="0.5">
<path opacity="0.5" d="M145.877 122.171H144.564L71.8111 186.556L71.7185 187.868C70.7745 203.049 74.8194 218.122 83.2367 230.791L187.04 138.815C175.498 128.932 161.044 123.088 145.877 122.171Z" fill="#FAFAFA"/>
<path opacity="0.5" d="M193.818 145.393L88.9341 238.202C92.4368 242.247 96.3951 245.874 100.73 249.01L203.036 158.424C200.47 153.743 197.377 149.371 193.818 145.393Z" fill="#FAFAFA"/>
</g>
<path d="M213.056 260.745L201.106 271.321C200.237 272.088 199.099 272.48 197.941 272.411C196.784 272.341 195.701 271.816 194.93 270.951C194.17 270.078 193.783 268.942 193.853 267.787C193.922 266.632 194.442 265.55 195.3 264.775L207.251 254.198C208.122 253.433 209.261 253.044 210.419 253.116C211.576 253.188 212.658 253.716 213.427 254.584C214.193 255.451 214.585 256.586 214.515 257.741C214.446 258.896 213.921 259.976 213.056 260.745Z" fill="#263238"/>
<path d="M208.656 258.784C217.657 266.704 226.273 274.98 234.78 283.364C243.288 291.748 251.595 300.348 259.809 308.902C268.023 317.456 276.082 326.287 284.08 335.15C291.584 344.414 301.805 351.269 303.334 365.814C303.454 366.977 303.295 368.152 302.87 369.241C302.445 370.331 301.768 371.304 300.892 372.079C300.017 372.855 298.97 373.411 297.837 373.701C296.705 373.992 295.519 374.008 294.379 373.75C280.112 370.461 274.569 359.483 266.293 350.899C258.491 341.892 250.802 332.803 243.226 323.632C235.65 314.46 228.213 305.14 220.915 295.67C213.628 286.22 206.463 276.663 199.685 266.766C198.815 265.554 198.425 264.063 198.59 262.58C198.754 261.097 199.462 259.728 200.577 258.736C201.691 257.744 203.133 257.2 204.625 257.209C206.117 257.218 207.553 257.779 208.656 258.784Z" fill="#263238"/>
<path d="M246.916 134.476C246.685 135.526 245.944 136.252 245.249 136.02C244.554 135.789 244.199 134.893 244.43 133.859C244.662 132.824 245.403 132.083 246.098 132.315C246.793 132.546 247.148 133.426 246.916 134.476Z" fill="#263238"/>
<path d="M235.074 131.852C234.842 132.902 234.086 133.627 233.406 133.473C232.727 133.319 232.356 132.346 232.588 131.296C232.82 130.246 233.561 129.52 234.256 129.675C234.95 129.829 235.306 130.802 235.074 131.852Z" fill="#263238"/>
<path d="M234.549 129.798L232.187 128.517C232.187 128.517 233.036 130.771 234.549 129.798Z" fill="#263238"/>
<path d="M238.301 134.554C236.836 136.733 235.08 138.702 233.082 140.405C233.531 140.908 234.084 141.306 234.703 141.573C235.321 141.84 235.991 141.968 236.664 141.949L238.301 134.554Z" fill="#ED893E"/>
<path d="M241.466 147.307C240.946 147.27 240.43 147.193 239.922 147.076C239.883 147.066 239.845 147.05 239.812 147.026C239.779 147.002 239.751 146.973 239.73 146.938C239.708 146.904 239.694 146.866 239.687 146.825C239.68 146.785 239.681 146.745 239.691 146.705C239.7 146.665 239.716 146.628 239.74 146.595C239.764 146.562 239.793 146.534 239.828 146.512C239.862 146.491 239.901 146.476 239.941 146.47C239.981 146.463 240.022 146.464 240.061 146.473C241.359 146.788 242.712 146.795 244.013 146.492C245.313 146.189 246.525 145.585 247.55 144.729C247.576 144.688 247.611 144.653 247.652 144.628C247.693 144.602 247.739 144.586 247.788 144.581C247.836 144.576 247.885 144.581 247.93 144.597C247.976 144.613 248.018 144.64 248.052 144.674C248.086 144.708 248.113 144.75 248.129 144.795C248.145 144.841 248.15 144.89 248.145 144.938C248.14 144.986 248.124 145.033 248.098 145.074C248.073 145.115 248.038 145.15 247.997 145.176C247.104 145.946 246.066 146.531 244.945 146.897C243.824 147.262 242.642 147.402 241.466 147.307Z" fill="#263238"/>
<path d="M269.042 148.28C268.33 149.33 267.419 150.229 266.359 150.926C265.299 151.623 264.112 152.104 262.866 152.341C259.531 152.958 258.234 149.901 259.361 146.921C260.411 144.235 263.437 140.745 266.649 141.425C267.348 141.598 267.993 141.943 268.525 142.429C269.058 142.914 269.461 143.525 269.699 144.205C269.936 144.886 270.001 145.614 269.886 146.326C269.771 147.037 269.481 147.709 269.042 148.28Z" fill="#FFB573"/>
<path d="M251.888 129.86C251.762 129.898 251.628 129.896 251.504 129.855C251.379 129.813 251.271 129.734 251.193 129.628C249.479 127.266 245.712 127.297 245.681 127.297C245.513 127.297 245.352 127.23 245.233 127.111C245.115 126.993 245.048 126.832 245.048 126.664C245.046 126.581 245.06 126.499 245.091 126.423C245.121 126.346 245.166 126.276 245.223 126.217C245.281 126.158 245.35 126.111 245.426 126.079C245.502 126.047 245.583 126.031 245.666 126.031C245.851 126.031 250.112 126.031 252.212 128.887C252.31 129.023 252.35 129.191 252.324 129.356C252.298 129.521 252.208 129.668 252.073 129.767L251.888 129.86Z" fill="#263238"/>
<path d="M232.604 123.175C232.494 123.167 232.389 123.132 232.297 123.072C232.206 123.013 232.13 122.931 232.079 122.835C232.003 122.685 231.99 122.512 232.042 122.353C232.094 122.194 232.207 122.062 232.357 121.986C233.239 121.512 234.222 121.256 235.223 121.237C236.224 121.218 237.216 121.438 238.116 121.878C238.258 121.964 238.361 122.103 238.405 122.264C238.448 122.425 238.427 122.596 238.347 122.742C238.263 122.888 238.125 122.994 237.963 123.037C237.801 123.08 237.628 123.058 237.483 122.974C236.766 122.636 235.98 122.472 235.188 122.496C234.397 122.521 233.622 122.732 232.928 123.113C232.825 123.156 232.715 123.177 232.604 123.175Z" fill="#263238"/>
<path d="M258.716 560.038L258.53 559.962C258.28 559.786 258.079 559.548 257.947 559.272C257.815 558.996 257.755 558.691 257.775 558.385C257.759 558.195 257.795 558.004 257.88 557.833C257.965 557.662 258.095 557.517 258.255 557.414C259.682 556.496 264.076 558.478 264.564 558.712C264.623 558.733 264.672 558.773 264.705 558.826C264.738 558.879 264.752 558.941 264.746 559.003C264.743 559.064 264.723 559.124 264.687 559.174C264.652 559.225 264.603 559.264 264.545 559.288C263.001 559.923 260.169 560.85 258.716 560.038ZM263.656 558.974C261.87 558.243 259.402 557.466 258.655 557.945C258.589 557.996 258.537 558.064 258.505 558.142C258.474 558.22 258.463 558.305 258.474 558.388C258.459 558.591 258.495 558.796 258.579 558.982C258.663 559.168 258.793 559.33 258.956 559.453C259.694 559.972 261.431 559.765 263.656 558.974Z" fill="#4A607A"/>
<path d="M263.899 559.074C262.446 558.262 260.115 556.09 260.235 554.738C260.248 554.488 260.347 554.249 260.514 554.063C260.681 553.877 260.908 553.753 261.155 553.713C261.387 553.646 261.631 553.63 261.869 553.667C262.107 553.704 262.335 553.793 262.535 553.928C264.153 554.99 264.736 558.782 264.769 558.946C264.772 558.999 264.764 559.053 264.743 559.102C264.723 559.151 264.692 559.196 264.652 559.232C264.607 559.264 264.555 559.285 264.499 559.292C264.444 559.298 264.388 559.291 264.336 559.269C264.185 559.218 264.039 559.152 263.899 559.074ZM262.122 554.409C261.878 554.276 261.593 554.242 261.325 554.316C260.932 554.422 260.87 554.614 260.874 554.766C260.827 555.697 262.626 557.618 264.031 558.427C263.777 557.172 263.163 555.085 262.201 554.458L262.122 554.409Z" fill="#4A607A"/>
<path d="M221.271 560.034C220.133 560.141 218.993 559.852 218.044 559.215C217.828 559.026 217.662 558.785 217.563 558.516C217.463 558.246 217.432 557.956 217.472 557.671C217.479 557.499 217.531 557.331 217.624 557.185C217.716 557.038 217.845 556.919 217.997 556.838C219.634 555.927 224.945 558.644 225.532 558.953C225.59 558.984 225.637 559.031 225.667 559.089C225.697 559.147 225.71 559.212 225.702 559.277C225.696 559.342 225.668 559.403 225.623 559.451C225.579 559.498 225.519 559.53 225.455 559.54C224.079 559.838 222.678 560.003 221.271 560.034ZM218.893 557.285C218.691 557.274 218.49 557.311 218.306 557.394C218.245 557.428 218.194 557.478 218.156 557.537C218.118 557.596 218.096 557.663 218.09 557.733C218.067 557.92 218.088 558.11 218.152 558.287C218.217 558.465 218.322 558.624 218.461 558.752C219.263 559.478 221.456 559.602 224.405 559.107C222.683 558.194 220.82 557.578 218.893 557.285Z" fill="#4A607A"/>
<path d="M225.393 559.571H225.269C223.725 558.86 220.545 555.988 220.792 554.475C220.792 554.12 221.101 553.672 221.965 553.58C222.279 553.546 222.596 553.578 222.896 553.674C223.197 553.77 223.474 553.927 223.71 554.136C225.393 555.525 225.702 559.107 225.702 559.262C225.71 559.315 225.703 559.37 225.681 559.419C225.66 559.468 225.624 559.51 225.578 559.54C225.522 559.57 225.456 559.581 225.393 559.571ZM222.228 554.167H222.027C221.456 554.167 221.425 554.46 221.41 554.537C221.255 555.433 223.386 557.702 225.007 558.675C224.882 557.163 224.289 555.727 223.309 554.568C223.014 554.3 222.626 554.156 222.228 554.167Z" fill="#4A607A"/>
<path d="M246.392 132.438L244.029 131.141C244.029 131.141 244.878 133.396 246.392 132.438Z" fill="#263238"/>
<path d="M271.574 256.499L272.948 261.332C273.133 261.718 272.701 262.104 272.068 262.104H216.376C215.897 262.104 215.496 261.857 215.465 261.548L214.971 256.715C214.971 256.375 215.357 256.098 215.897 256.098H270.632C270.811 256.07 270.994 256.093 271.16 256.164C271.326 256.235 271.47 256.351 271.574 256.499Z" fill="#4A607A"/>
<path opacity="0.2" d="M271.574 256.499L272.948 261.332C273.133 261.718 272.701 262.104 272.068 262.104H216.376C215.897 262.104 215.496 261.857 215.465 261.548L214.971 256.715C214.971 256.375 215.357 256.098 215.897 256.098H270.632C270.811 256.07 270.994 256.093 271.16 256.164C271.326 256.235 271.47 256.351 271.574 256.499Z" fill="black"/>
<path d="M264.039 262.613H265.506C265.799 262.613 266.015 262.474 266 262.289L265.305 256.005C265.305 255.819 265.027 255.665 264.749 255.665H263.205C262.912 255.665 262.68 255.819 262.711 256.005L263.391 262.289C263.483 262.474 263.746 262.613 264.039 262.613Z" fill="#4A607A"/>
<path opacity="0.4" d="M264.039 262.613H265.506C265.799 262.613 266.015 262.474 266 262.289L265.305 256.005C265.305 255.819 265.027 255.665 264.749 255.665H263.205C262.912 255.665 262.68 255.819 262.711 256.005L263.391 262.289C263.483 262.474 263.746 262.613 264.039 262.613Z" fill="white"/>
<path d="M220.56 262.613H222.027C222.32 262.613 222.536 262.474 222.521 262.289L221.842 256.005C221.842 255.819 221.564 255.665 221.27 255.665H219.803C219.51 255.665 219.294 255.819 219.309 256.005L219.989 262.289C220.02 262.474 220.267 262.613 220.56 262.613Z" fill="#4A607A"/>
<path opacity="0.4" d="M220.56 262.613H222.027C222.32 262.613 222.536 262.474 222.521 262.289L221.842 256.005C221.842 255.819 221.564 255.665 221.27 255.665H219.803C219.51 255.665 219.294 255.819 219.309 256.005L219.989 262.289C220.02 262.474 220.267 262.613 220.56 262.613Z" fill="white"/>
<path d="M242.207 262.613H243.751C244.044 262.613 244.26 262.474 244.245 262.289L243.566 256.005C243.566 255.819 243.288 255.665 242.994 255.665H241.528C241.234 255.665 241.018 255.819 241.033 256.005L241.713 262.289C241.667 262.474 241.914 262.613 242.207 262.613Z" fill="#4A607A"/>
<path opacity="0.4" d="M242.207 262.613H243.751C244.044 262.613 244.26 262.474 244.245 262.289L243.566 256.005C243.566 255.819 243.288 255.665 242.994 255.665H241.528C241.234 255.665 241.018 255.819 241.033 256.005L241.713 262.289C241.667 262.474 241.914 262.613 242.207 262.613Z" fill="white"/>
<path d="M238.285 270.457L225.161 264.589L228.898 277.605C228.898 277.605 237.235 279.489 240.864 275.305L238.285 270.457Z" fill="#FFB573"/>
<path d="M286.643 195.001C287.245 199.556 287.724 204.142 288.265 208.697L289.654 222.438C290.148 227.07 290.519 231.594 290.951 236.18L291.522 243.051L291.677 244.78C291.677 244.95 291.677 245.66 291.677 246.154C291.677 246.648 291.677 247.22 291.677 247.698C291.446 249.661 290.821 251.557 289.839 253.272C288.25 255.914 286.15 258.213 283.663 260.035C281.578 261.607 279.368 263.006 277.055 264.219C272.73 266.454 268.233 268.338 263.607 269.855C259.083 271.399 254.544 272.68 249.989 273.823C245.434 274.965 240.879 275.907 236.17 276.633L234.626 270.071C238.872 268.666 243.211 267.23 247.426 265.609C251.641 263.987 255.856 262.397 259.901 260.56C263.883 258.817 267.742 256.805 271.45 254.538C273.16 253.505 274.782 252.333 276.299 251.033C277.488 250.07 278.479 248.885 279.217 247.544C279.378 247.25 279.462 246.921 279.464 246.586C279.464 246.586 279.464 246.586 279.464 246.463C279.464 246.339 279.464 246.463 279.464 246.123L279.217 244.425L278.229 237.585C277.626 232.953 276.947 228.46 276.391 223.89L274.646 210.194C274.152 205.562 273.581 201.054 273.102 196.468L286.643 195.001Z" fill="#FFB573"/>
<path d="M280.344 178.974C285.748 180.611 292.263 199.263 292.263 199.263L273.318 218.763C273.318 218.763 263.591 198.691 265.861 191.712C268.239 184.425 274.168 177.091 280.344 178.974Z" fill="#4A607A"/>
<path d="M214.307 267.291L218.013 278.007L228.898 277.605L225.161 264.589L214.307 267.291Z" fill="#FFB573"/>
</g>
<defs>
<clipPath id="clip0_6861_835">
<rect width="592" height="607" fill="white"/>
</clipPath>
</defs>
</svg>
